<svg width="184" height="202" viewBox="0 0 184 202" fill="none" xmlns="http://www.w3.org/2000/svg">
<path d="M144.594 162.449C144.541 162.454 144.49 162.449 144.438 162.447C143.759 162.464 143.134 161.961 142.983 161.189L139.951 145.704C139.782 144.842 140.264 144.012 141.03 143.846C141.796 143.681 142.552 144.245 142.721 145.107L145.119 157.355C151.28 148.264 154.199 137.029 153.357 125.371C152.439 112.646 147.149 100.937 138.472 92.4164C131.048 85.1237 121.9 80.9089 112.304 80.2701C112.376 80.9387 112.435 81.6117 112.485 82.2852C113.468 95.8625 109.675 108.908 101.809 119.022C90.2921 133.829 79.254 134.419 73.303 130.426C67.3402 126.424 65.405 117.722 68.3752 108.255C69.8718 103.484 72.5108 98.6499 76.2159 93.8868C84.0814 83.7733 95.0801 77.8072 107.186 77.0822C107.788 77.0465 108.389 77.0243 108.988 77.0135C107.173 66.424 102.199 56.7907 94.7734 49.4984C76.8605 31.9062 49.9017 33.5182 34.6762 53.0902C31.1981 57.5605 28.7362 62.0603 27.3549 66.4618C27.0985 67.2825 26.2899 67.6942 25.5494 67.3843C24.8085 67.0729 24.4165 66.1548 24.675 65.3368C26.1715 60.5659 28.8088 55.7309 32.5154 50.9675C48.7529 30.0916 77.5054 28.3738 96.6116 47.1354C104.668 55.0457 109.974 65.5207 111.871 77.066C122.3 77.6258 132.255 82.1412 140.31 90.0518C147.954 97.5588 153.13 107.383 155.253 118.226C155.7 120.508 156.012 122.84 156.183 125.202C157.057 137.286 154.142 148.943 147.948 158.493L157.818 156.364C158.584 156.199 159.34 156.762 159.509 157.624C159.677 158.487 159.195 159.317 158.429 159.482L144.675 162.45C144.647 162.456 144.622 162.445 144.594 162.449ZM107.416 80.2536C96.0657 80.931 85.7525 86.5282 78.3782 96.0092C74.9 100.48 72.4378 104.978 71.0555 109.381C69.7922 113.404 69.5049 117.164 70.1233 120.321C70.7486 123.515 72.3019 126.095 74.713 127.712C80.1163 131.34 89.9232 129.402 99.6489 116.898C107.025 107.416 110.579 95.1839 109.658 82.4545C109.603 81.6945 109.534 80.9392 109.447 80.186C108.771 80.1905 108.094 80.2131 107.416 80.2536Z" fill="url(#paint0_linear_44_7)"/>
<defs>
<linearGradient id="paint0_linear_44_7" x1="33.839" y1="113.23" x2="149.827" y2="90.5165" gradientUnits="userSpaceOnUse">
<stop stop-color="#CD1B5E"/>
<stop offset="1" stop-color="#0F2B45"/>
</linearGradient>
</defs>
</svg>
