<svg width="126" height="71" viewBox="0 0 126 71" fill="none" xmlns="http://www.w3.org/2000/svg">
<path fill-rule="evenodd" clip-rule="evenodd" d="M54.1127 37.2462C52.7202 37.322 49.1555 37.6533 44.6627 38.1247L37.4486 38.8815L34.6572 39.4637C24.4836 41.5855 16.9215 43.6251 10.0689 46.0957C8.97848 46.489 7.13708 47.1324 5.97676 47.526C1.78231 48.9482 0.0283203 49.802 0.0283203 50.4218C0.0283203 50.7898 0.10797 50.8323 0.798158 50.8323C1.68848 50.8323 2.48633 50.6279 5.03075 49.7478C8.68013 48.4856 14.8334 47.1755 18.0846 46.9688C19.5027 46.8785 19.5189 46.8856 19.5189 47.5916C19.5189 47.8287 19.6897 52.9063 19.8986 58.8757C20.1072 64.8449 20.278 69.8316 20.2783 69.9575C20.2787 70.6009 20.6172 70.3908 21.5203 69.1868C21.5355 69.1663 21.7816 69.2336 22.0667 69.336L22.5855 69.5221L22.8305 69.2888C22.9655 69.1605 23.2065 68.7845 23.3665 68.4535C23.6682 67.8289 23.7566 67.7508 24.1623 67.7508C24.4731 67.7508 24.7259 67.4226 25.0877 66.5485C25.3928 65.8118 25.351 65.8502 26.733 65.0284C27.7715 64.4106 28.3685 63.7833 28.648 63.0163C28.6942 62.8887 28.7665 62.7847 28.8083 62.7847C28.8505 62.7847 28.8846 62.7258 28.8846 62.6537C28.8846 62.5204 29.4691 61.348 29.5758 61.2676C29.8086 61.0918 30.7557 58.3727 31.162 56.7125C31.8208 54.0214 32.2542 49.8976 32.2586 46.2765L32.2596 45.2981L33.1246 45.1648C36.3686 44.6655 40.7106 44.3948 42.0471 44.6083C42.9607 44.7544 43.5247 45.347 44.6104 47.3018C44.9759 47.96 45.605 49.0142 46.0083 49.6444C50.2493 56.2698 52.9537 61.4379 54.4475 65.7728C55.1255 67.7411 55.7729 69.2286 56.1647 69.7188L56.3584 69.9608L57.2396 69.7417C57.8698 69.5851 58.4881 69.3424 59.4125 68.8892C60.9407 68.14 60.7159 68.1771 60.9825 68.6306C61.184 68.9733 61.4847 69.2659 61.6359 69.2659C61.6693 69.2659 61.9019 68.8589 62.153 68.3612C62.7628 67.1522 63.0419 66.7068 65.0406 63.7527C67.0562 60.7733 67.7781 59.5454 68.3812 58.0721L68.8264 56.9849L69.3032 56.7785C71.0012 56.0439 73.7589 55.6587 79.9315 55.2937C83.1843 55.1015 85.5417 54.9102 86.3018 54.7772C86.5802 54.7284 87.909 54.6577 89.2549 54.62C91.6414 54.5533 92.3238 54.4715 93.0096 54.1695C93.2185 54.0776 93.8331 55.1425 95.7953 58.9969C96.797 60.9646 97.8402 62.9325 98.1136 63.3705C99.848 66.1499 102.372 68.435 103.556 68.2976C107.487 67.8424 108.855 64.2382 107.095 58.9673C106.649 57.6273 106.648 57.6297 107.185 57.9027C107.868 58.2508 107.923 58.4599 106.389 54.8587C105.673 53.178 105.1 51.7895 105.116 51.773C105.133 51.7568 105.901 51.974 106.823 52.2558C109.42 53.0494 109.814 52.948 108.675 51.7794L108.245 51.3373H108.518C109.382 51.3373 110.906 51.8056 113.718 52.9356C116.602 54.0951 117.962 54.4069 118.151 53.9517C118.295 53.6056 118.381 53.6682 116.009 52.3807C114.319 51.4639 113.881 51.1918 113.952 51.1053C114.419 50.5451 107.858 48.124 103.639 47.3001L103.174 47.2092L102.975 46.657C102.866 46.3533 102.81 46.0766 102.85 46.0419C102.891 46.0072 105.293 46.5802 108.189 47.3152C111.526 48.162 113.484 48.6222 113.535 48.5714C113.579 48.5273 113.64 48.3785 113.669 48.2408L113.724 47.9903L119.575 50.0474C125.1 51.9898 125.433 52.0959 125.546 51.9524C125.822 51.6013 125.833 51.5302 125.647 51.2945L125.466 51.0653L125.733 51.1238C126.211 51.2285 126.122 50.6824 125.6 50.304C122.76 48.2478 119.231 46.8711 110.981 44.6019C107.738 43.7096 106.636 43.382 104.189 42.5827C99.7458 41.1306 96.3019 40.2673 92.1236 39.5579C91.799 39.5027 91.1533 39.3869 90.6893 39.3007C90.2252 39.2142 89.314 39.0647 88.6643 38.9684C88.0146 38.8721 87.0021 38.7186 86.4142 38.6277C82.973 38.094 77.0583 37.5907 70.5236 37.2752C67.3927 37.124 56.7071 37.1052 54.1127 37.2462ZM59.832 44.5136C59.8961 44.5291 59.6642 44.8561 59.589 44.8561C59.5417 44.8561 59.5313 44.8086 59.566 44.751C59.6092 44.6793 59.5836 44.6827 59.4867 44.7611C59.3321 44.8864 59.291 44.9827 59.4283 44.8981C59.5495 44.8234 59.5276 45.0402 59.3966 45.2119C59.2397 45.418 58.7226 44.814 58.8175 44.5355C58.8478 44.4463 59.4979 44.4322 59.832 44.5136Z" fill="#050F72"/>
<path fill-rule="evenodd" clip-rule="evenodd" d="M53.0768 0.493541C51.5928 1.02248 51.6141 0.99588 51.0687 3.02274C50.5864 4.81426 48.0501 11.207 47.0795 13.0773C43.7045 19.58 38.2299 26.3037 34.0459 29.0844C33.6591 29.3413 33.3307 29.5389 33.3159 29.5231C33.0978 29.2965 33.0523 24.3287 33.2325 20.4463C33.7256 9.83562 32.8862 5.90883 29.5585 3.2527C26.4697 0.787133 18.5354 0.276041 17.0936 2.4497L16.8779 2.7746L16.9313 4.43481C16.9613 5.37282 17.0787 6.8455 17.2013 7.82055C17.3201 8.76967 17.4547 9.88714 17.5003 10.3036C17.5455 10.7201 17.6741 11.6484 17.7861 12.3658C17.963 13.5011 18.069 15.3411 18.6015 26.5488C18.938 33.6317 19.2219 39.4396 19.232 39.4547C19.2421 39.4699 19.5293 39.4056 19.8699 39.312C32.0114 35.9757 41.3757 34.3125 50.1639 33.931C50.9853 33.8953 51.6809 33.8425 51.71 33.8135C51.8146 33.7095 51.4602 33.1863 50.8797 32.5883C50.554 32.2526 50.3033 31.9658 50.3228 31.9506C53.1629 29.7342 55.9301 27.1309 57.5406 25.16C57.6732 24.998 57.8768 24.7623 57.9932 24.6364C58.1096 24.5102 58.2996 24.2863 58.4157 24.1388C58.5318 23.9913 58.6992 23.7947 58.788 23.7021C61.0945 21.2928 65.3321 13.6712 65.889 10.9299C66.7091 6.8923 63.2568 2.51569 57.8673 0.760872C55.7353 0.0666215 54.4724 -0.00374712 53.0768 0.493541ZM74.8476 1.03999C72.5388 1.18948 70.6299 1.33122 70.6059 1.35546C70.5816 1.37937 70.2026 4.02776 69.7632 7.2401C69.0051 12.7816 68.9292 13.2389 68.2839 16.1536C66.7614 23.0281 65.539 27.8114 64.2832 31.8082C64.0726 32.4789 63.9001 33.1324 63.9001 33.2604V33.493H65.7776C68.7429 33.493 73.9029 33.726 77.6529 34.0294L78.9351 34.133L79.2209 33.7849C79.8791 32.9839 80.6955 30.9544 81.277 28.6747C81.6415 27.2458 81.6165 27.2532 82.1903 28.4006C82.8224 29.6649 84.3999 33.9098 84.4022 34.3543C84.4036 34.5408 83.6661 34.3947 92.1657 35.8933C100.08 37.2888 99.9188 37.27 99.7082 36.7781C98.5327 34.0327 97.0959 28.5275 95.424 20.3622C94.3878 15.3038 94.3959 15.3553 94.1482 12.2396C93.6646 6.15596 92.9798 4.26849 90.8897 3.2591C89.7 2.68437 87.4046 2.03995 86.2595 1.95914C85.9115 1.93457 85.488 1.86252 85.3189 1.79922C84.9483 1.66084 84.1788 1.52717 81.4501 1.12752C80.3131 0.9612 79.307 0.812048 79.2142 0.796561C79.1214 0.781073 77.1564 0.890496 74.8476 1.03999Z" fill="#FC1B04"/>
<path fill-rule="evenodd" clip-rule="evenodd" d="M85.4578 1.8444C85.4865 1.89087 85.6691 1.9242 85.8635 1.91847C86.1976 1.90905 86.203 1.90501 85.964 1.8444C85.5898 1.74946 85.3991 1.74946 85.4578 1.8444ZM55.8054 27.0475L55.5151 27.3906L55.8432 27.0778C56.0237 26.9058 56.154 26.7512 56.1334 26.7347C56.1125 26.7179 55.9647 26.8586 55.8054 27.0475Z" fill="#FC6454"/>
<path fill-rule="evenodd" clip-rule="evenodd" d="M29.007 62.2877C28.9327 62.4311 28.8872 62.5631 28.9054 62.5813C28.9236 62.5995 29.0016 62.4823 29.0788 62.321C29.2523 61.9581 29.1922 61.9301 29.007 62.2877Z" fill="#5C6CD4"/>
</svg>
