<svg width="524" height="92" viewBox="0 0 524 92" fill="none" xmlns="http://www.w3.org/2000/svg">
<path fill-rule="evenodd" clip-rule="evenodd" d="M375.166 39.27V44.54L374.516 43.869C374.158 43.501 373.708 43.149 373.516 43.088C373.324 43.027 373.166 42.913 373.166 42.835C373.166 42.757 372.941 42.643 372.666 42.583C372.391 42.523 372.166 42.412 372.166 42.338C372.166 42.263 371.961 42.151 371.71 42.088C371.459 42.025 371.208 41.9 371.152 41.81C371.097 41.721 370.628 41.604 370.109 41.55C369.591 41.497 369.166 41.389 369.166 41.31C369.166 41.231 368.341 41.166 367.333 41.166C366.325 41.166 365.5 41.234 365.5 41.317C365.5 41.399 365.05 41.519 364.5 41.583C363.95 41.647 363.5 41.761 363.5 41.836C363.5 41.912 363.275 42.023 363 42.083C362.725 42.143 362.5 42.254 362.5 42.328C362.5 42.403 362.312 42.511 362.083 42.568C361.854 42.626 361.666 42.746 361.666 42.836C361.666 42.926 361.583 43 361.48 43C361.24 43 358.666 45.586 358.666 45.828C358.666 45.928 358.558 46.052 358.427 46.102C358.295 46.153 358.139 46.413 358.08 46.68C358.021 46.948 357.908 47.166 357.827 47.166C357.747 47.166 357.63 47.448 357.567 47.791C357.503 48.135 357.369 48.47 357.267 48.535C356.993 48.712 357.011 55.531 357.286 55.623C357.398 55.66 357.537 55.948 357.596 56.262C357.655 56.576 357.762 56.833 357.833 56.833C357.905 56.833 358.011 57.021 358.068 57.25C358.126 57.479 358.246 57.666 358.336 57.666C358.426 57.666 358.5 57.781 358.5 57.922C358.5 58.062 358.612 58.22 358.75 58.273C358.887 58.325 359 58.465 359 58.582C359 58.875 360.729 60.611 361.155 60.746C361.345 60.806 361.5 60.925 361.5 61.011C361.5 61.096 361.615 61.166 361.755 61.166C361.895 61.166 362.053 61.277 362.104 61.412C362.156 61.547 362.473 61.708 362.807 61.769C363.142 61.831 363.462 61.951 363.517 62.036C363.573 62.122 363.929 62.233 364.309 62.284C364.689 62.335 365 62.442 365 62.522C365 62.601 366.125 62.666 367.5 62.666C368.875 62.666 370 62.601 370 62.521C370 62.441 370.375 62.326 370.833 62.265C371.291 62.205 371.666 62.092 371.666 62.015C371.666 61.938 371.966 61.828 372.333 61.769C372.7 61.71 373 61.588 373 61.498C373 61.407 373.115 61.333 373.255 61.333C373.395 61.333 373.553 61.22 373.606 61.083C373.659 60.945 373.801 60.833 373.921 60.833C374.042 60.833 374.366 60.608 374.641 60.333C374.916 60.058 375.192 59.833 375.255 59.833C375.457 59.833 376.16 59.09 376.163 58.875C376.165 58.76 376.24 58.666 376.33 58.666C376.42 58.666 376.54 58.479 376.598 58.25C376.655 58.02 376.766 57.833 376.844 57.833C376.921 57.833 377.034 57.57 377.094 57.25C377.154 56.929 377.267 56.666 377.344 56.666C377.421 56.666 377.536 56.385 377.599 56.041C377.663 55.698 377.797 55.363 377.899 55.297C378.029 55.213 378.097 52.092 378.132 44.589L378.18 34H376.673H375.166V39.27ZM283.583 35.5C283.523 35.775 283.408 36 283.327 36C283.247 36 283.132 36.262 283.072 36.583C283.012 36.904 282.902 37.166 282.828 37.166C282.754 37.166 282.643 37.391 282.583 37.666C282.523 37.941 282.41 38.166 282.333 38.166C282.256 38.166 282.143 38.391 282.083 38.666C282.023 38.941 281.91 39.166 281.833 39.166C281.756 39.166 281.643 39.391 281.583 39.666C281.523 39.941 281.405 40.166 281.322 40.166C281.238 40.166 281.122 40.466 281.064 40.833C281.005 41.2 280.898 41.5 280.825 41.5C280.752 41.5 280.643 41.725 280.583 42C280.523 42.275 280.41 42.5 280.333 42.5C280.256 42.5 280.143 42.725 280.083 43C280.023 43.275 279.91 43.5 279.833 43.5C279.756 43.5 279.643 43.725 279.583 44C279.523 44.275 279.41 44.5 279.333 44.5C279.256 44.5 279.143 44.725 279.083 45C279.023 45.275 278.912 45.5 278.838 45.5C278.764 45.5 278.654 45.762 278.594 46.083C278.534 46.404 278.419 46.666 278.339 46.666C278.258 46.666 278.143 46.891 278.083 47.166C278.023 47.441 277.91 47.666 277.833 47.666C277.756 47.666 277.643 47.891 277.583 48.166C277.523 48.441 277.41 48.666 277.333 48.666C277.256 48.666 277.143 48.891 277.083 49.166C277.023 49.441 276.905 49.666 276.822 49.666C276.738 49.666 276.622 49.966 276.564 50.333C276.505 50.7 276.398 51 276.325 51C276.252 51 276.143 51.225 276.083 51.5C276.023 51.775 275.91 52 275.833 52C275.756 52 275.643 52.225 275.583 52.5C275.523 52.775 275.41 53 275.333 53C275.256 53 275.143 53.225 275.083 53.5C275.023 53.775 274.908 54 274.827 54C274.747 54 274.632 54.262 274.572 54.583C274.512 54.904 274.402 55.166 274.328 55.166C274.254 55.166 274.143 55.391 274.083 55.666C274.023 55.941 273.91 56.166 273.833 56.166C273.756 56.166 273.643 56.391 273.583 56.666C273.523 56.941 273.41 57.166 273.333 57.166C273.256 57.166 273.143 57.391 273.083 57.666C273.023 57.941 272.91 58.166 272.833 58.166C272.756 58.166 272.643 58.391 272.583 58.666C272.523 58.941 272.412 59.166 272.338 59.166C272.264 59.166 272.154 59.429 272.094 59.75C272.034 60.07 271.921 60.333 271.844 60.333C271.766 60.333 271.651 60.538 271.588 60.79C271.525 61.041 271.402 61.291 271.314 61.345C271.226 61.399 271.11 61.718 271.055 62.055L270.956 62.666H272.725C274.472 62.666 274.495 62.661 274.598 62.25C274.655 62.021 274.763 61.833 274.838 61.833C274.912 61.833 275.023 61.608 275.083 61.333C275.143 61.058 275.256 60.833 275.333 60.833C275.41 60.833 275.523 60.608 275.583 60.333C275.643 60.058 275.756 59.833 275.833 59.833C275.91 59.833 276.023 59.608 276.083 59.333C276.143 59.058 276.254 58.833 276.328 58.833C276.402 58.833 276.512 58.57 276.572 58.25C276.632 57.929 276.747 57.666 276.827 57.666C276.908 57.666 277.023 57.441 277.083 57.166C277.143 56.891 277.256 56.666 277.333 56.666C277.41 56.666 277.523 56.441 277.583 56.166C277.643 55.891 277.756 55.666 277.833 55.666C277.91 55.666 278.023 55.441 278.083 55.166C278.143 54.891 278.257 54.666 278.335 54.666C278.413 54.666 278.501 54.46 278.53 54.208L278.583 53.75L284.306 53.706C289.921 53.663 290.031 53.668 290.117 53.997C290.166 54.182 290.266 54.333 290.339 54.333C290.413 54.333 290.523 54.558 290.583 54.833C290.643 55.108 290.761 55.333 290.844 55.333C290.928 55.333 291.044 55.633 291.102 56C291.161 56.366 291.268 56.666 291.341 56.666C291.414 56.666 291.523 56.891 291.583 57.166C291.643 57.441 291.756 57.666 291.833 57.666C291.91 57.666 292.023 57.891 292.083 58.166C292.143 58.441 292.256 58.666 292.333 58.666C292.41 58.666 292.523 58.891 292.583 59.166C292.643 59.441 292.756 59.666 292.833 59.666C292.91 59.666 293.023 59.891 293.083 60.166C293.143 60.441 293.258 60.666 293.339 60.666C293.419 60.666 293.534 60.929 293.594 61.25C293.654 61.57 293.762 61.833 293.833 61.833C293.905 61.833 294.011 62.021 294.068 62.25C294.171 62.661 294.194 62.666 295.933 62.666H297.693L297.582 62.164C297.522 61.887 297.142 61.006 296.738 60.205C296.335 59.405 296.003 58.618 296.002 58.458C296.001 58.298 295.931 58.166 295.846 58.166C295.762 58.166 295.643 57.941 295.583 57.666C295.523 57.391 295.41 57.166 295.333 57.166C295.256 57.166 295.143 56.941 295.083 56.666C295.023 56.391 294.91 56.166 294.833 56.166C294.756 56.166 294.643 55.941 294.583 55.666C294.523 55.391 294.412 55.166 294.338 55.166C294.264 55.166 294.154 54.904 294.094 54.583C294.034 54.262 293.919 54 293.839 54C293.758 54 293.643 53.775 293.583 53.5C293.523 53.225 293.41 53 293.333 53C293.256 53 293.143 52.775 293.083 52.5C293.023 52.225 292.905 52 292.822 52C292.738 52 292.622 51.7 292.564 51.333C292.505 50.966 292.398 50.666 292.325 50.666C292.252 50.666 292.143 50.441 292.083 50.166C292.023 49.891 291.91 49.666 291.833 49.666C291.756 49.666 291.643 49.441 291.583 49.166C291.523 48.891 291.41 48.666 291.333 48.666C291.256 48.666 291.143 48.441 291.083 48.166C291.023 47.891 290.912 47.666 290.838 47.666C290.764 47.666 290.654 47.404 290.594 47.083C290.534 46.762 290.419 46.5 290.339 46.5C290.258 46.5 290.143 46.275 290.083 46C290.023 45.725 289.91 45.5 289.833 45.5C289.756 45.5 289.643 45.275 289.583 45C289.523 44.725 289.405 44.5 289.322 44.5C289.238 44.5 289.122 44.2 289.064 43.833C289.005 43.466 288.898 43.166 288.825 43.166C288.752 43.166 288.643 42.941 288.583 42.666C288.523 42.391 288.41 42.166 288.333 42.166C288.256 42.166 288.143 41.941 288.083 41.666C288.023 41.391 287.91 41.166 287.833 41.166C287.756 41.166 287.643 40.941 287.583 40.666C287.523 40.391 287.412 40.166 287.338 40.166C287.264 40.166 287.154 39.904 287.094 39.583C287.034 39.262 286.919 39 286.839 39C286.758 39 286.643 38.775 286.583 38.5C286.523 38.225 286.41 38 286.333 38C286.256 38 286.143 37.775 286.083 37.5C286.023 37.225 285.914 37 285.841 37C285.768 37 285.661 36.7 285.602 36.333C285.544 35.966 285.43 35.666 285.35 35.666C285.271 35.666 285.166 35.516 285.118 35.333C284.96 34.729 283.723 34.863 283.583 35.5ZM154 48.916V62.666H155.583H157.166V56.264C157.166 52.742 157.232 49.836 157.312 49.805C157.443 49.756 157.979 49.306 159.71 47.797C160.239 47.335 160.666 47.398 160.666 47.937C160.666 48.063 160.741 48.166 160.833 48.166C160.925 48.166 161 48.244 161 48.34C161 48.537 161.685 49.554 161.875 49.639C161.943 49.669 162 49.766 162 49.854C162 50.014 162.652 51.009 162.861 51.168C162.923 51.215 163.023 51.453 163.085 51.698C163.146 51.942 163.302 52.183 163.431 52.232C163.561 52.282 163.666 52.437 163.666 52.578C163.666 52.718 163.74 52.833 163.83 52.833C163.92 52.833 164.039 53.015 164.095 53.238C164.151 53.46 164.302 53.683 164.431 53.732C164.561 53.782 164.666 53.937 164.666 54.078C164.666 54.218 164.74 54.333 164.83 54.333C164.92 54.333 165.04 54.521 165.098 54.75C165.155 54.979 165.269 55.166 165.351 55.166C165.433 55.166 165.5 55.281 165.5 55.422C165.5 55.562 165.605 55.717 165.735 55.767C165.864 55.817 166.015 56.039 166.071 56.262C166.127 56.484 166.246 56.666 166.336 56.666C166.426 56.666 166.5 56.781 166.5 56.922C166.5 57.062 166.605 57.217 166.735 57.267C166.864 57.317 167.015 57.539 167.071 57.762C167.127 57.984 167.24 58.166 167.323 58.166C167.406 58.166 167.521 58.385 167.58 58.652C167.639 58.92 167.795 59.18 167.927 59.231C168.058 59.281 168.166 59.437 168.166 59.578C168.166 59.718 168.24 59.833 168.33 59.833C168.42 59.833 168.539 60.015 168.595 60.238C168.651 60.46 168.802 60.683 168.931 60.732C169.061 60.782 169.166 60.937 169.166 61.078C169.166 61.218 169.233 61.333 169.315 61.333C169.397 61.333 169.511 61.521 169.568 61.75C169.626 61.979 169.746 62.166 169.836 62.166C169.926 62.166 170 62.279 170 62.416C170 62.625 170.342 62.666 172.083 62.666H174.166V62.244C174.166 62.012 174.058 61.781 173.927 61.731C173.795 61.68 173.639 61.42 173.58 61.152C173.521 60.885 173.421 60.666 173.358 60.666C173.295 60.666 173.058 60.329 172.833 59.916C172.608 59.504 172.374 59.166 172.313 59.166C172.252 59.166 172.155 58.979 172.098 58.75C172.04 58.521 171.92 58.333 171.83 58.333C171.74 58.333 171.666 58.232 171.666 58.109C171.666 57.985 171.516 57.711 171.333 57.5C171.15 57.288 171 57.014 171 56.891C171 56.767 170.925 56.666 170.833 56.666C170.741 56.666 170.666 56.588 170.666 56.493C170.666 56.329 170.034 55.346 169.814 55.166C169.757 55.12 169.654 54.901 169.585 54.679C169.516 54.457 169.392 54.195 169.31 54.096C168.622 53.269 168.5 53.088 168.5 52.891C168.5 52.767 168.425 52.666 168.333 52.666C168.241 52.666 168.166 52.551 168.166 52.411C168.166 52.271 168.058 52.114 167.927 52.064C167.795 52.013 167.639 51.753 167.58 51.486C167.521 51.218 167.406 51 167.323 51C167.24 51 167.127 50.818 167.071 50.595C167.015 50.373 166.864 50.15 166.735 50.1C166.605 50.051 166.5 49.895 166.5 49.755C166.5 49.615 166.433 49.5 166.351 49.5C166.269 49.5 166.155 49.312 166.098 49.083C166.04 48.854 165.92 48.666 165.83 48.666C165.74 48.666 165.666 48.551 165.666 48.411C165.666 48.271 165.558 48.114 165.427 48.064C165.295 48.013 165.139 47.753 165.08 47.486C165.021 47.218 164.906 47 164.823 47C164.74 47 164.626 46.812 164.568 46.583C164.511 46.354 164.397 46.166 164.315 46.166C164.233 46.166 164.166 46.058 164.166 45.925C164.166 45.792 164.064 45.623 163.938 45.55C163.578 45.339 163.457 44.731 163.725 44.476C163.856 44.351 164.573 43.687 165.319 43C166.066 42.312 167.322 41.131 168.11 40.375C168.898 39.618 169.591 39 169.65 39C169.709 39 170.394 38.377 171.173 37.616C171.951 36.855 172.718 36.182 172.877 36.121C173.046 36.056 173.166 35.835 173.166 35.588V35.166H170.897H168.627L167.98 35.833C167.625 36.2 167.262 36.5 167.176 36.5C167.089 36.5 166.649 36.875 166.198 37.333C165.747 37.791 165.322 38.166 165.254 38.166C165.186 38.166 164.724 38.579 164.228 39.083C163.732 39.587 163.259 40 163.176 40C163.094 40 162.576 40.45 162.026 41C161.476 41.55 160.973 42 160.907 42C160.842 42 160.419 42.375 159.968 42.833C159.517 43.291 159.076 43.666 158.988 43.666C158.9 43.666 158.504 44.004 158.109 44.416C157.714 44.829 157.34 45.166 157.278 45.166C157.217 45.166 157.166 42.916 157.166 40.166V35.166H155.583H154V48.916ZM186.666 41.311C186.666 41.391 186.216 41.508 185.666 41.57C185.116 41.632 184.666 41.748 184.666 41.828C184.666 41.908 184.441 42.023 184.166 42.083C183.891 42.143 183.666 42.254 183.666 42.328C183.666 42.403 183.472 42.512 183.235 42.572C182.998 42.631 182.634 42.864 182.425 43.09C182.216 43.315 181.987 43.5 181.917 43.5C181.724 43.5 180.249 45.04 180.121 45.375C180.06 45.535 179.941 45.666 179.856 45.666C179.772 45.666 179.655 45.854 179.598 46.083C179.54 46.312 179.426 46.5 179.343 46.5C179.26 46.5 179.143 46.725 179.083 47C179.023 47.275 178.911 47.5 178.834 47.5C178.758 47.5 178.642 47.818 178.577 48.208C178.512 48.598 178.374 48.97 178.271 49.035C178.01 49.201 178.01 54.966 178.271 55.131C178.374 55.196 178.511 55.493 178.575 55.791C178.64 56.089 178.756 56.333 178.833 56.333C178.91 56.333 179.023 56.558 179.083 56.833C179.143 57.108 179.254 57.333 179.328 57.333C179.403 57.333 179.513 57.53 179.573 57.771C179.634 58.012 179.905 58.43 180.175 58.701C180.445 58.971 180.666 59.261 180.666 59.346C180.666 59.545 181.287 60.166 181.487 60.166C181.571 60.166 181.862 60.387 182.132 60.658C182.402 60.928 182.815 61.197 183.05 61.256C183.284 61.315 183.516 61.469 183.566 61.598C183.615 61.727 183.846 61.833 184.078 61.833C184.31 61.833 184.5 61.905 184.5 61.994C184.5 62.082 184.875 62.205 185.333 62.265C185.791 62.326 186.166 62.441 186.166 62.521C186.166 62.601 187.291 62.666 188.666 62.666C190.041 62.666 191.166 62.6 191.166 62.519C191.166 62.438 191.579 62.32 192.083 62.257C192.587 62.194 193 62.079 193 62.001C193 61.923 193.225 61.81 193.5 61.75C193.775 61.689 194 61.579 194 61.504C194 61.43 194.183 61.323 194.407 61.267C194.88 61.148 197.425 58.664 197.582 58.168C197.641 57.984 197.753 57.833 197.831 57.833C197.909 57.833 198.023 57.608 198.083 57.333C198.143 57.058 198.256 56.833 198.333 56.833C198.41 56.833 198.526 56.589 198.591 56.291C198.655 55.993 198.775 55.707 198.857 55.654C198.94 55.602 199.053 55.058 199.111 54.446C199.168 53.834 199.279 53.333 199.357 53.333C199.436 53.333 199.5 52.695 199.5 51.916C199.5 51.137 199.434 50.5 199.355 50.5C199.275 50.5 199.158 49.975 199.094 49.333C199.031 48.691 198.912 48.166 198.83 48.166C198.748 48.166 198.632 47.904 198.572 47.583C198.512 47.262 198.404 47 198.333 47C198.261 47 198.155 46.812 198.098 46.583C198.04 46.354 197.92 46.166 197.83 46.166C197.74 46.166 197.666 46.051 197.666 45.911C197.666 45.771 197.557 45.614 197.423 45.562C197.289 45.511 197.131 45.319 197.073 45.135C196.956 44.766 195.716 43.5 195.472 43.5C195.387 43.5 195.148 43.317 194.942 43.095C194.735 42.872 194.364 42.639 194.116 42.576C193.869 42.514 193.666 42.405 193.666 42.333C193.666 42.261 193.461 42.151 193.21 42.088C192.959 42.025 192.708 41.9 192.652 41.81C192.597 41.721 192.128 41.604 191.609 41.55C191.091 41.497 190.666 41.389 190.666 41.31C190.666 41.231 189.766 41.166 188.666 41.166C187.566 41.166 186.666 41.232 186.666 41.311ZM226.666 41.311C226.666 41.391 226.216 41.508 225.666 41.57C225.116 41.632 224.666 41.746 224.666 41.823C224.666 41.9 224.404 42.012 224.083 42.072C223.762 42.132 223.5 42.245 223.5 42.322C223.5 42.4 223.312 42.511 223.083 42.568C222.854 42.626 222.666 42.746 222.666 42.836C222.666 42.926 222.582 43 222.479 43C222.241 43 220.269 44.986 220.121 45.375C220.06 45.535 219.941 45.666 219.856 45.666C219.772 45.666 219.655 45.854 219.598 46.083C219.54 46.312 219.426 46.5 219.343 46.5C219.26 46.5 219.143 46.725 219.083 47C219.023 47.275 218.911 47.5 218.834 47.5C218.758 47.5 218.642 47.818 218.577 48.208C218.512 48.598 218.374 48.97 218.271 49.035C218.01 49.201 218.01 54.966 218.271 55.131C218.374 55.196 218.511 55.493 218.575 55.791C218.64 56.089 218.762 56.333 218.846 56.333C218.931 56.333 219 56.523 219 56.755C219 56.987 219.105 57.217 219.235 57.267C219.364 57.317 219.519 57.554 219.579 57.795C219.64 58.036 219.872 58.402 220.095 58.608C220.317 58.815 220.5 59.056 220.5 59.145C220.5 59.388 221.993 60.833 222.245 60.833C222.365 60.833 222.507 60.945 222.56 61.083C222.613 61.22 222.771 61.333 222.911 61.333C223.051 61.333 223.166 61.402 223.166 61.486C223.166 61.571 223.391 61.689 223.666 61.75C223.941 61.81 224.166 61.923 224.166 62.001C224.166 62.079 224.579 62.194 225.083 62.257C225.587 62.32 226 62.438 226 62.519C226 62.6 227.237 62.666 228.75 62.666C230.262 62.666 231.5 62.601 231.5 62.522C231.5 62.442 231.81 62.335 232.19 62.284C232.57 62.233 232.926 62.12 232.982 62.033C233.038 61.946 233.327 61.822 233.625 61.757C233.923 61.693 234.166 61.572 234.166 61.49C234.166 61.407 234.348 61.294 234.571 61.238C234.793 61.182 235.016 61.031 235.066 60.901C235.115 60.772 235.237 60.666 235.337 60.666C235.579 60.666 237.166 59.095 237.166 58.855C237.166 58.751 237.24 58.666 237.33 58.666C237.42 58.666 237.539 58.484 237.595 58.262C237.651 58.039 237.802 57.817 237.931 57.767C238.061 57.717 238.166 57.562 238.166 57.422C238.166 57.281 238.241 57.166 238.333 57.166C238.996 57.166 238.44 56.186 237.497 55.692C236.5 55.169 235.666 55.009 235.666 55.34C235.666 55.561 235.029 56.472 234.541 56.95C234.335 57.152 234.166 57.39 234.166 57.478C234.166 57.567 233.904 57.801 233.583 58C233.262 58.198 233 58.423 233 58.5C233 58.577 232.775 58.689 232.5 58.75C232.225 58.81 232 58.925 232 59.005C232 59.086 231.736 59.201 231.414 59.261C231.093 59.321 230.788 59.437 230.738 59.519C230.688 59.6 230.426 59.666 230.156 59.666C229.887 59.666 229.666 59.723 229.666 59.791C229.666 59.86 229.104 59.916 228.416 59.916C227.729 59.916 227.166 59.86 227.166 59.791C227.166 59.723 226.941 59.666 226.666 59.666C226.391 59.666 226.166 59.599 226.166 59.518C226.166 59.436 225.966 59.319 225.721 59.257C224.946 59.063 222.666 57.258 222.666 56.839C222.666 56.757 222.573 56.588 222.458 56.462C222.049 56.015 221.652 55.105 221.554 54.391C221.499 53.993 221.39 53.666 221.31 53.666C221.231 53.666 221.166 53.366 221.166 53V52.333H230.189H239.212L239.093 50.71C239.027 49.817 238.914 49.048 238.84 49.001C238.767 48.955 238.654 48.598 238.589 48.208C238.524 47.818 238.408 47.5 238.332 47.5C238.255 47.5 238.143 47.275 238.083 47C238.023 46.725 237.912 46.5 237.838 46.5C237.763 46.5 237.655 46.312 237.598 46.083C237.54 45.854 237.42 45.666 237.33 45.666C237.24 45.666 237.166 45.584 237.166 45.482C237.166 45.243 234.923 43 234.684 43C234.582 43 234.5 42.926 234.5 42.836C234.5 42.746 234.312 42.626 234.083 42.568C233.854 42.511 233.666 42.4 233.666 42.322C233.666 42.245 233.404 42.132 233.083 42.072C232.762 42.012 232.5 41.9 232.5 41.823C232.5 41.746 232.05 41.632 231.5 41.57C230.95 41.508 230.5 41.391 230.5 41.311C230.5 41.232 229.637 41.166 228.583 41.166C227.529 41.166 226.666 41.232 226.666 41.311ZM253.5 41.31C253.5 41.389 253.075 41.497 252.557 41.55C252.038 41.604 251.569 41.721 251.514 41.81C251.458 41.9 251.207 42.025 250.956 42.088C250.705 42.151 250.5 42.261 250.5 42.333C250.5 42.405 250.297 42.514 250.05 42.576C249.802 42.639 249.431 42.872 249.224 43.095C249.018 43.317 248.776 43.5 248.687 43.5C248.444 43.5 247 44.993 247 45.245C247 45.365 246.887 45.507 246.75 45.56C246.612 45.613 246.5 45.771 246.5 45.911C246.5 46.051 246.426 46.166 246.336 46.166C246.246 46.166 246.126 46.354 246.068 46.583C246.011 46.812 245.9 47 245.822 47C245.745 47 245.632 47.262 245.572 47.583C245.512 47.904 245.4 48.166 245.323 48.166C245.246 48.166 245.132 48.616 245.07 49.166C245.008 49.716 244.891 50.166 244.811 50.166C244.732 50.166 244.666 50.954 244.666 51.916C244.666 52.879 244.731 53.666 244.81 53.666C244.889 53.666 244.995 54.127 245.046 54.69C245.097 55.253 245.214 55.76 245.306 55.816C245.398 55.873 245.525 56.125 245.588 56.376C245.651 56.628 245.763 56.833 245.838 56.833C245.912 56.833 246.023 57.058 246.083 57.333C246.143 57.608 246.262 57.833 246.346 57.833C246.431 57.833 246.5 57.94 246.5 58.07C246.5 58.201 246.725 58.532 247 58.807C247.275 59.082 247.5 59.371 247.5 59.45C247.5 59.617 248.112 60.166 248.298 60.166C248.368 60.166 248.614 60.381 248.845 60.644C249.075 60.907 249.445 61.179 249.666 61.249C249.887 61.32 250.17 61.48 250.295 61.605C250.421 61.73 250.668 61.833 250.845 61.833C251.022 61.833 251.166 61.903 251.166 61.988C251.166 62.073 251.579 62.194 252.083 62.257C252.587 62.32 253 62.438 253 62.519C253 62.6 253.937 62.666 255.083 62.666C256.229 62.666 257.166 62.602 257.166 62.523C257.166 62.444 257.591 62.336 258.109 62.282C258.628 62.229 259.097 62.112 259.152 62.022C259.208 61.933 259.459 61.808 259.71 61.745C259.961 61.682 260.166 61.571 260.166 61.5C260.166 61.428 260.354 61.322 260.583 61.265C260.812 61.207 261 61.086 261 60.996C261 60.907 261.088 60.833 261.195 60.833C261.302 60.833 261.714 60.496 262.109 60.083C263.042 59.109 263 59.061 263 61.083V62.833H264.595H266.19L266.136 55.993C266.099 51.152 266.028 49.119 265.895 49.035C265.792 48.97 265.654 48.598 265.589 48.208C265.524 47.818 265.408 47.5 265.332 47.5C265.255 47.5 265.143 47.275 265.083 47C265.023 46.725 264.906 46.5 264.823 46.5C264.74 46.5 264.626 46.312 264.568 46.083C264.511 45.854 264.394 45.666 264.31 45.666C264.225 45.666 264.106 45.535 264.045 45.375C263.917 45.04 262.442 43.5 262.249 43.5C262.179 43.5 261.95 43.315 261.741 43.09C261.532 42.864 261.168 42.631 260.931 42.572C260.694 42.512 260.5 42.403 260.5 42.328C260.5 42.254 260.275 42.143 260 42.083C259.725 42.023 259.5 41.908 259.5 41.828C259.5 41.748 259.05 41.632 258.5 41.57C257.95 41.508 257.5 41.391 257.5 41.311C257.5 41.232 256.6 41.166 255.5 41.166C254.4 41.166 253.5 41.231 253.5 41.31ZM311.666 41.314C311.666 41.395 311.179 41.513 310.583 41.577C309.987 41.641 309.5 41.761 309.5 41.844C309.5 41.928 309.2 42.044 308.833 42.102C308.466 42.161 308.166 42.274 308.166 42.354C308.166 42.434 308.051 42.5 307.911 42.5C307.771 42.5 307.615 42.605 307.566 42.735C307.516 42.864 307.293 43.015 307.071 43.071C306.848 43.127 306.666 43.246 306.666 43.336C306.666 43.426 306.583 43.5 306.482 43.5C306.241 43.5 304.5 45.241 304.5 45.482C304.5 45.583 304.426 45.666 304.336 45.666C304.246 45.666 304.127 45.848 304.071 46.071C304.015 46.293 303.864 46.516 303.735 46.566C303.605 46.615 303.5 46.771 303.5 46.911C303.5 47.051 303.428 47.166 303.341 47.166C303.253 47.166 303.13 47.448 303.067 47.791C303.003 48.135 302.881 48.462 302.795 48.518C302.709 48.574 302.597 49.08 302.546 49.643C302.495 50.206 302.389 50.666 302.31 50.666C302.231 50.666 302.166 51.341 302.166 52.166C302.166 52.991 302.231 53.666 302.31 53.666C302.389 53.666 302.495 54.127 302.546 54.69C302.597 55.253 302.714 55.76 302.806 55.816C302.898 55.873 303.025 56.125 303.088 56.376C303.151 56.628 303.263 56.833 303.338 56.833C303.412 56.833 303.523 57.058 303.583 57.333C303.643 57.608 303.757 57.833 303.835 57.833C303.913 57.833 304.025 57.984 304.084 58.169C304.222 58.606 306.227 60.61 306.663 60.749C306.848 60.807 307 60.919 307 60.998C307 61.076 307.225 61.189 307.5 61.25C307.775 61.31 308 61.423 308 61.5C308 61.577 308.225 61.689 308.5 61.75C308.775 61.81 309 61.926 309 62.007C309 62.088 309.375 62.205 309.833 62.265C310.291 62.326 310.666 62.441 310.666 62.521C310.666 62.601 311.979 62.666 313.583 62.666C315.187 62.666 316.5 62.601 316.5 62.521C316.5 62.441 316.875 62.326 317.333 62.265C317.791 62.205 318.166 62.092 318.166 62.015C318.166 61.938 318.466 61.828 318.833 61.769C319.2 61.71 319.5 61.588 319.5 61.498C319.5 61.407 319.615 61.333 319.755 61.333C319.895 61.333 320.051 61.227 320.1 61.098C320.15 60.969 320.373 60.817 320.595 60.762C320.818 60.706 321 60.586 321 60.496C321 60.407 321.083 60.333 321.186 60.333C321.386 60.333 322.666 59.115 322.666 58.924C322.666 58.861 322.779 58.697 322.916 58.559C323.391 58.084 323.199 57.727 322.076 56.995C320.983 56.283 320.166 56.246 320.166 56.907C320.166 57.121 319.572 57.666 319.339 57.666C319.253 57.666 319.123 57.76 319.05 57.875C318.873 58.151 317.893 58.833 317.673 58.833C317.578 58.833 317.5 58.908 317.5 59C317.5 59.091 317.387 59.166 317.25 59.166C317.112 59.166 317 59.234 317 59.317C317 59.4 316.858 59.431 316.685 59.386C316.512 59.341 316.32 59.385 316.259 59.485C316.197 59.585 315.889 59.666 315.573 59.666C315.258 59.666 315 59.723 314.999 59.791C314.999 59.86 314.362 59.916 313.583 59.916C312.803 59.916 312.166 59.86 312.166 59.791C312.166 59.723 311.941 59.666 311.666 59.666C311.391 59.666 311.166 59.591 311.166 59.5C311.166 59.408 311.043 59.333 310.893 59.333C310.573 59.333 309.182 58.677 308.863 58.375C308.742 58.26 308.575 58.166 308.493 58.166C308.338 58.166 307.166 57.052 307.166 56.904C307.166 56.8 306.458 55.782 306.305 55.665C306.243 55.618 306.139 55.355 306.073 55.081C306.007 54.807 305.87 54.478 305.768 54.349C305.445 53.94 305.531 49.848 305.876 49.25C306.035 48.975 306.165 48.656 306.165 48.541C306.166 48.427 306.236 48.333 306.322 48.333C306.407 48.333 306.53 48.164 306.594 47.958C306.734 47.505 308.496 45.675 308.797 45.67C308.914 45.668 309.052 45.558 309.102 45.427C309.153 45.295 309.413 45.139 309.68 45.08C309.948 45.021 310.166 44.919 310.166 44.853C310.166 44.786 310.56 44.633 311.041 44.511C312.111 44.242 315.5 44.082 315.5 44.301C315.5 44.387 315.875 44.506 316.333 44.567C316.791 44.628 317.166 44.75 317.166 44.839C317.166 44.927 317.261 45 317.377 45C317.914 45 320.5 47.092 320.5 47.526C320.5 47.722 321.495 47.59 321.658 47.372C321.78 47.21 322.326 46.871 322.791 46.67C323.227 46.482 323.313 45.712 322.916 45.56C322.779 45.507 322.666 45.368 322.666 45.25C322.666 44.958 320.937 43.222 320.511 43.086C320.321 43.026 320.166 42.913 320.166 42.835C320.166 42.757 319.941 42.643 319.666 42.583C319.391 42.523 319.166 42.412 319.166 42.338C319.166 42.264 318.904 42.154 318.583 42.094C318.262 42.034 318 41.918 318 41.836C318 41.754 317.475 41.635 316.833 41.572C316.191 41.508 315.666 41.391 315.666 41.311C315.666 41.232 314.766 41.166 313.666 41.166C312.566 41.166 311.666 41.233 311.666 41.314ZM337.666 41.311C337.666 41.391 337.216 41.508 336.666 41.57C336.116 41.632 335.666 41.748 335.666 41.828C335.666 41.908 335.441 42.023 335.166 42.083C334.891 42.143 334.666 42.254 334.666 42.328C334.666 42.403 334.472 42.512 334.235 42.572C333.998 42.631 333.634 42.864 333.425 43.09C333.216 43.315 332.987 43.5 332.917 43.5C332.724 43.5 331.249 45.04 331.121 45.375C331.06 45.535 330.941 45.666 330.856 45.666C330.772 45.666 330.655 45.854 330.598 46.083C330.54 46.312 330.426 46.5 330.343 46.5C330.26 46.5 330.143 46.725 330.083 47C330.023 47.275 329.911 47.5 329.834 47.5C329.758 47.5 329.642 47.818 329.577 48.208C329.512 48.598 329.374 48.97 329.271 49.035C329.01 49.201 329.01 54.966 329.271 55.131C329.374 55.196 329.511 55.493 329.575 55.791C329.64 56.089 329.756 56.333 329.833 56.333C329.91 56.333 330.023 56.558 330.083 56.833C330.143 57.108 330.254 57.333 330.328 57.333C330.403 57.333 330.513 57.53 330.573 57.771C330.634 58.012 330.905 58.43 331.175 58.701C331.445 58.971 331.666 59.261 331.666 59.346C331.666 59.545 332.287 60.166 332.487 60.166C332.571 60.166 332.862 60.387 333.132 60.658C333.402 60.928 333.815 61.197 334.05 61.256C334.284 61.315 334.516 61.469 334.566 61.598C334.615 61.727 334.846 61.833 335.078 61.833C335.31 61.833 335.5 61.905 335.5 61.994C335.5 62.082 335.875 62.205 336.333 62.265C336.791 62.326 337.166 62.441 337.166 62.521C337.166 62.601 338.141 62.666 339.333 62.666C340.525 62.666 341.5 62.601 341.5 62.521C341.5 62.441 341.95 62.325 342.5 62.263C343.05 62.201 343.5 62.084 343.5 62.005C343.5 61.925 343.725 61.81 344 61.75C344.275 61.689 344.5 61.571 344.5 61.486C344.5 61.402 344.615 61.333 344.755 61.333C344.895 61.333 345.053 61.22 345.106 61.083C345.159 60.945 345.301 60.833 345.421 60.833C345.541 60.833 345.983 60.49 346.403 60.07L347.166 59.307V61.07V62.833H348.833H350.5V56.5C350.5 53.015 350.434 50.166 350.355 50.166C350.275 50.166 350.158 49.716 350.096 49.166C350.034 48.616 349.92 48.166 349.843 48.166C349.766 48.166 349.654 47.904 349.594 47.583C349.534 47.262 349.421 47 349.344 47C349.266 47 349.155 46.812 349.098 46.583C349.04 46.354 348.92 46.166 348.83 46.166C348.74 46.166 348.666 46.051 348.666 45.911C348.666 45.771 348.554 45.613 348.416 45.56C348.279 45.507 348.166 45.365 348.166 45.245C348.166 44.993 346.722 43.5 346.479 43.5C346.39 43.5 346.148 43.317 345.942 43.095C345.735 42.872 345.364 42.639 345.116 42.576C344.869 42.514 344.666 42.405 344.666 42.333C344.666 42.261 344.461 42.151 344.21 42.088C343.959 42.025 343.708 41.9 343.652 41.81C343.597 41.721 343.128 41.604 342.609 41.55C342.091 41.497 341.666 41.389 341.666 41.31C341.666 41.231 340.766 41.166 339.666 41.166C338.566 41.166 337.666 41.232 337.666 41.311ZM393 41.31C393 41.389 392.575 41.497 392.057 41.55C391.538 41.604 391.07 41.716 391.015 41.8C390.961 41.883 390.635 42.003 390.291 42.067C389.948 42.13 389.666 42.253 389.666 42.341C389.666 42.428 389.551 42.5 389.411 42.5C389.271 42.5 389.113 42.612 389.06 42.75C389.007 42.887 388.866 43 388.745 43C388.46 43 386.5 44.96 386.5 45.245C386.5 45.366 386.387 45.507 386.25 45.56C386.112 45.613 386 45.771 386 45.911C386 46.051 385.926 46.166 385.836 46.166C385.746 46.166 385.626 46.354 385.568 46.583C385.511 46.812 385.4 47 385.322 47C385.245 47 385.132 47.262 385.072 47.583C385.012 47.904 384.9 48.166 384.823 48.166C384.746 48.166 384.632 48.616 384.57 49.166C384.508 49.716 384.391 50.166 384.311 50.166C384.232 50.166 384.166 50.954 384.166 51.916C384.166 52.879 384.231 53.666 384.31 53.666C384.389 53.666 384.496 54.133 384.547 54.704C384.599 55.275 384.722 55.768 384.821 55.801C384.919 55.834 385.046 56.15 385.103 56.503C385.159 56.857 385.309 57.186 385.436 57.234C385.563 57.283 385.666 57.437 385.666 57.578C385.666 57.718 385.741 57.833 385.833 57.833C385.925 57.833 386 57.946 386 58.085C386 58.223 386.15 58.465 386.333 58.622C386.516 58.779 386.666 58.97 386.666 59.046C386.666 59.258 388.262 60.833 388.477 60.833C388.581 60.833 388.666 60.907 388.666 60.996C388.666 61.086 388.854 61.207 389.083 61.265C389.312 61.322 389.5 61.43 389.5 61.504C389.5 61.579 389.725 61.689 390 61.75C390.275 61.81 390.5 61.926 390.5 62.007C390.5 62.088 390.875 62.205 391.333 62.265C391.791 62.326 392.166 62.441 392.166 62.521C392.166 62.601 393.404 62.666 394.916 62.666C396.429 62.666 397.666 62.601 397.666 62.522C397.666 62.442 397.977 62.335 398.357 62.284C398.737 62.233 399.093 62.122 399.149 62.036C399.204 61.951 399.524 61.831 399.859 61.769C400.193 61.708 400.51 61.547 400.562 61.412C400.613 61.277 400.771 61.166 400.911 61.166C401.051 61.166 401.166 61.096 401.166 61.011C401.166 60.925 401.319 60.807 401.504 60.748C401.943 60.609 403.442 59.109 403.581 58.671C403.64 58.485 403.759 58.333 403.844 58.333C403.93 58.333 404 58.224 404 58.091C404 57.958 404.124 57.78 404.275 57.695C404.954 57.315 404.663 56.187 403.75 55.661C402.849 55.141 402 55.014 402 55.399C402 55.526 401.887 55.674 401.75 55.727C401.612 55.779 401.5 55.904 401.5 56.003C401.5 56.103 401.275 56.424 401 56.717C400.726 57.01 400.501 57.327 400.5 57.422C400.5 57.517 400.277 57.726 400.006 57.886C399.734 58.047 399.415 58.269 399.297 58.381C398.983 58.678 397.59 59.333 397.273 59.333C397.123 59.333 397 59.408 397 59.5C397 59.591 396.775 59.666 396.5 59.666C396.225 59.666 396 59.723 396 59.791C396 59.86 395.437 59.916 394.75 59.916C394.062 59.916 393.5 59.86 393.5 59.791C393.5 59.723 393.331 59.666 393.125 59.666C392.193 59.667 389 57.499 389 56.866C389 56.756 388.938 56.666 388.863 56.666C388.688 56.666 388 55.299 388 54.954C388 54.811 387.928 54.669 387.841 54.639C387.754 54.608 387.631 54.077 387.568 53.458L387.454 52.333H396.477H405.5V51.416C405.5 50.912 405.436 50.5 405.357 50.5C405.279 50.5 405.168 49.999 405.111 49.387C405.053 48.775 404.94 48.231 404.857 48.178C404.775 48.126 404.655 47.839 404.591 47.541C404.526 47.243 404.41 47 404.333 47C404.256 47 404.143 46.775 404.083 46.5C404.023 46.225 403.909 46 403.831 46C403.753 46 403.64 45.846 403.58 45.658C403.445 45.232 401.209 43 400.917 43C400.799 43 400.659 42.887 400.606 42.75C400.553 42.612 400.395 42.5 400.255 42.5C400.115 42.5 400 42.428 400 42.341C400 42.253 399.718 42.13 399.375 42.067C399.031 42.003 398.705 41.883 398.651 41.8C398.596 41.716 398.128 41.604 397.609 41.55C397.091 41.497 396.666 41.389 396.666 41.31C396.666 41.231 395.841 41.166 394.833 41.166C393.825 41.166 393 41.231 393 41.31ZM211.666 41.814C211.666 41.896 211.404 42.012 211.083 42.072C210.762 42.132 210.5 42.252 210.5 42.337C210.5 42.423 210.312 42.54 210.083 42.598C209.854 42.655 209.666 42.769 209.666 42.851C209.666 42.933 209.584 43 209.482 43C209.243 43 207 45.243 207 45.482C207 45.584 206.931 45.666 206.846 45.666C206.762 45.666 206.643 45.891 206.583 46.166C206.523 46.441 206.41 46.666 206.333 46.666C206.256 46.666 206.143 46.891 206.083 47.166C206.023 47.441 205.908 47.666 205.827 47.666C205.747 47.666 205.63 47.948 205.567 48.291C205.503 48.635 205.369 48.97 205.267 49.035C205.139 49.118 205.067 51.211 205.031 55.91L204.979 62.666H206.573H208.166V56.75C208.166 52.916 208.225 50.833 208.333 50.833C208.425 50.833 208.5 50.552 208.5 50.208C208.501 49.466 209.392 47.639 210.155 46.815C210.442 46.504 210.731 46.192 210.797 46.121C211.617 45.238 211.931 45.091 213.137 45.027C214.23 44.969 214.376 44.921 214.539 44.564C214.638 44.345 214.777 44.166 214.847 44.166C214.916 44.166 215.021 43.948 215.08 43.68C215.139 43.413 215.295 43.153 215.427 43.102C215.945 42.903 215.707 42.189 215.083 42.072C214.762 42.012 214.5 41.896 214.5 41.814C214.5 41.733 213.862 41.666 213.083 41.666C212.304 41.666 211.666 41.733 211.666 41.814ZM418.666 41.812C418.666 41.891 418.291 42.006 417.833 42.067C417.375 42.128 417 42.242 417 42.321C417 42.399 416.812 42.511 416.583 42.568C416.354 42.626 416.166 42.746 416.166 42.836C416.166 42.926 416.082 43 415.979 43C415.739 43 413.666 45.086 413.666 45.328C413.666 45.428 413.558 45.552 413.427 45.602C413.295 45.653 413.139 45.913 413.08 46.18C413.021 46.448 412.911 46.666 412.835 46.666C412.76 46.666 412.644 47.06 412.578 47.541C412.513 48.023 412.375 48.47 412.271 48.535C412.138 48.619 412.067 50.692 412.027 55.66L411.971 62.666H413.472H414.973L415.028 55.993C415.066 51.398 415.14 49.284 415.266 49.202C415.366 49.136 415.495 48.784 415.553 48.418C415.611 48.052 415.735 47.727 415.829 47.695C415.923 47.664 416 47.567 416 47.479C416 47.134 417.205 45.666 417.488 45.666C417.573 45.666 417.742 45.568 417.863 45.448C418.432 44.884 421.5 44.365 421.5 44.833C421.5 44.925 421.632 45 421.794 45C422.44 45 424.5 46.511 424.5 46.985C424.5 47.062 424.607 47.215 424.739 47.324C424.871 47.433 425.03 47.761 425.093 48.053C425.156 48.344 425.293 48.636 425.396 48.702C425.528 48.786 425.599 50.855 425.639 55.743L425.695 62.666H427.181H428.666V57.25C428.666 54.271 428.732 51.833 428.811 51.833C428.891 51.833 429.009 51.233 429.073 50.5C429.137 49.766 429.251 49.166 429.326 49.166C429.401 49.166 429.513 48.895 429.576 48.564C429.638 48.233 429.777 47.855 429.886 47.724C430.54 46.934 431.767 45.816 432.182 45.633C432.448 45.515 432.666 45.362 432.666 45.294C432.666 45.226 432.968 45.122 433.337 45.063C433.705 45.004 434.047 44.891 434.097 44.811C434.214 44.621 436 44.622 436 44.812C436 44.892 436.221 45.002 436.491 45.056C437.233 45.205 438.664 46.502 438.666 47.027C438.666 47.18 438.76 47.336 438.875 47.375C439.036 47.428 439.094 49.15 439.133 55.055L439.182 62.666H440.841H442.5V55.666C442.5 51.816 442.436 48.666 442.357 48.666C442.279 48.666 442.17 48.129 442.115 47.472C442.06 46.816 441.946 46.235 441.861 46.181C441.777 46.127 441.655 45.839 441.591 45.541C441.526 45.243 441.409 45 441.331 45C441.253 45 441.14 44.846 441.08 44.658C440.94 44.217 439.949 43.226 439.508 43.086C439.32 43.026 439.166 42.913 439.166 42.835C439.166 42.757 438.941 42.643 438.666 42.583C438.391 42.523 438.166 42.407 438.166 42.325C438.166 42.244 437.791 42.128 437.333 42.067C436.875 42.006 436.5 41.891 436.5 41.812C436.5 41.732 435.825 41.666 435 41.666C434.175 41.666 433.5 41.73 433.5 41.809C433.5 41.887 432.999 41.998 432.387 42.055C431.775 42.113 431.23 42.23 431.177 42.316C431.123 42.403 430.88 42.523 430.635 42.585C430.391 42.646 430.15 42.802 430.1 42.931C430.051 43.061 429.929 43.166 429.829 43.166C429.587 43.166 428 44.737 428 44.977C428 45.081 427.926 45.166 427.836 45.166C427.746 45.166 427.626 45.354 427.568 45.583C427.427 46.145 427.217 46.108 427.083 45.5C427.023 45.225 426.904 45 426.82 45C426.735 45 426.666 44.886 426.666 44.748C426.666 44.61 426.516 44.368 426.333 44.211C426.15 44.054 426 43.83 426 43.713C426 43.595 425.915 43.5 425.81 43.5C425.706 43.5 425.45 43.315 425.241 43.09C425.032 42.864 424.668 42.631 424.431 42.572C424.194 42.512 424 42.402 424 42.327C424 42.252 423.587 42.139 423.083 42.076C422.579 42.013 422.166 41.895 422.166 41.814C422.166 41.733 421.379 41.666 420.416 41.666C419.454 41.666 418.666 41.732 418.666 41.812ZM447.584 42.171C447.645 42.449 447.913 43.105 448.179 43.63C448.445 44.154 448.663 44.714 448.664 44.875C448.665 45.035 448.735 45.166 448.82 45.166C448.904 45.166 449.023 45.391 449.083 45.666C449.143 45.941 449.258 46.166 449.339 46.166C449.419 46.166 449.534 46.429 449.594 46.75C449.654 47.071 449.77 47.333 449.852 47.333C449.933 47.333 450 47.446 450 47.584C450 47.721 450.15 48.114 450.333 48.456C450.516 48.798 450.666 49.21 450.666 49.372C450.666 49.534 450.735 49.666 450.82 49.666C450.904 49.666 451.023 49.891 451.083 50.166C451.143 50.441 451.258 50.666 451.339 50.666C451.419 50.666 451.534 50.929 451.594 51.25C451.654 51.57 451.764 51.833 451.838 51.833C451.912 51.833 452.023 52.058 452.083 52.333C452.143 52.608 452.261 52.833 452.344 52.833C452.428 52.833 452.544 53.133 452.602 53.5C452.661 53.866 452.768 54.166 452.841 54.166C452.914 54.166 453.023 54.391 453.083 54.666C453.143 54.941 453.258 55.166 453.339 55.166C453.419 55.166 453.534 55.429 453.594 55.75C453.654 56.07 453.764 56.333 453.838 56.333C453.912 56.333 454.023 56.558 454.083 56.833C454.143 57.108 454.261 57.333 454.344 57.333C454.428 57.333 454.544 57.633 454.602 58C454.661 58.366 454.766 58.666 454.836 58.666C454.906 58.666 455.015 58.872 455.078 59.123C455.141 59.374 455.269 59.627 455.362 59.684C455.605 59.834 455.609 61.047 455.367 61.127C455.257 61.164 455.164 61.319 455.161 61.472C455.158 61.625 455.01 62.05 454.833 62.416C454.656 62.783 454.508 63.214 454.505 63.375C454.502 63.535 454.431 63.666 454.346 63.666C454.262 63.666 454.143 63.891 454.083 64.166C454.023 64.441 453.912 64.666 453.838 64.666C453.764 64.666 453.654 64.929 453.594 65.25C453.534 65.57 453.413 65.833 453.325 65.833C453.238 65.833 453.166 65.927 453.165 66.041C453.165 66.156 453.064 66.442 452.941 66.677C452.818 66.913 452.663 67.324 452.596 67.592C452.528 67.86 452.398 68.126 452.307 68.182C452.216 68.239 452.099 68.596 452.048 68.976L451.956 69.666H453.561C454.877 69.666 455.166 69.621 455.166 69.416C455.166 69.279 455.24 69.166 455.331 69.166C455.422 69.166 455.544 68.866 455.602 68.5C455.661 68.133 455.768 67.833 455.841 67.833C455.914 67.833 456.023 67.608 456.083 67.333C456.143 67.058 456.258 66.833 456.339 66.833C456.419 66.833 456.534 66.57 456.594 66.25C456.654 65.929 456.764 65.666 456.838 65.666C456.912 65.666 457.023 65.441 457.083 65.166C457.143 64.891 457.252 64.666 457.325 64.666C457.398 64.666 457.505 64.366 457.564 64C457.622 63.633 457.738 63.333 457.822 63.333C457.905 63.333 458.023 63.108 458.083 62.833C458.143 62.558 458.254 62.333 458.328 62.333C458.402 62.333 458.512 62.07 458.572 61.75C458.632 61.429 458.752 61.166 458.839 61.166C458.925 61.166 459.044 60.866 459.102 60.5C459.161 60.133 459.268 59.833 459.341 59.833C459.414 59.833 459.523 59.608 459.583 59.333C459.643 59.058 459.758 58.833 459.839 58.833C459.919 58.833 460.034 58.57 460.094 58.25C460.154 57.929 460.264 57.666 460.338 57.666C460.412 57.666 460.523 57.441 460.583 57.166C460.643 56.891 460.752 56.666 460.825 56.666C460.898 56.666 461.005 56.366 461.064 56C461.122 55.633 461.238 55.333 461.322 55.333C461.405 55.333 461.523 55.108 461.583 54.833C461.643 54.558 461.754 54.333 461.828 54.333C461.902 54.333 462.012 54.07 462.072 53.75C462.132 53.429 462.252 53.166 462.339 53.166C462.425 53.166 462.544 52.866 462.602 52.5C462.661 52.133 462.768 51.833 462.841 51.833C462.914 51.833 463.023 51.608 463.083 51.333C463.143 51.058 463.258 50.833 463.339 50.833C463.419 50.833 463.534 50.571 463.594 50.25C463.654 49.929 463.764 49.666 463.838 49.666C463.912 49.666 464.023 49.441 464.083 49.166C464.143 48.891 464.262 48.666 464.346 48.666C464.431 48.666 464.5 48.534 464.5 48.372C464.5 48.21 464.65 47.798 464.833 47.456C465.016 47.114 465.166 46.721 465.166 46.584C465.166 46.446 465.233 46.333 465.314 46.333C465.396 46.333 465.512 46.071 465.572 45.75C465.632 45.429 465.747 45.166 465.827 45.166C465.908 45.166 466.023 44.941 466.083 44.666C466.143 44.391 466.262 44.166 466.346 44.166C466.431 44.166 466.502 44.035 466.505 43.875C466.508 43.714 466.656 43.283 466.833 42.916C467.414 41.714 467.369 41.666 465.654 41.666C464.026 41.666 463.771 41.776 463.573 42.563C463.513 42.803 463.4 43 463.322 43C463.245 43 463.132 43.262 463.072 43.583C463.012 43.904 462.902 44.166 462.828 44.166C462.754 44.166 462.643 44.391 462.583 44.666C462.523 44.941 462.414 45.166 462.341 45.166C462.268 45.166 462.161 45.466 462.102 45.833C462.044 46.2 461.925 46.5 461.839 46.5C461.752 46.5 461.632 46.762 461.572 47.083C461.512 47.404 461.402 47.666 461.328 47.666C461.254 47.666 461.143 47.891 461.083 48.166C461.023 48.441 460.914 48.666 460.841 48.666C460.768 48.666 460.661 48.966 460.602 49.333C460.544 49.7 460.428 50 460.344 50C460.261 50 460.143 50.225 460.083 50.5C460.023 50.775 459.912 51 459.838 51C459.764 51 459.654 51.262 459.594 51.583C459.534 51.904 459.419 52.166 459.339 52.166C459.258 52.166 459.142 52.396 459.081 52.678C459.019 52.959 458.863 53.39 458.735 53.636C458.607 53.882 458.501 54.177 458.501 54.291C458.5 54.406 458.433 54.5 458.352 54.5C458.27 54.5 458.154 54.762 458.094 55.083C458.034 55.404 457.921 55.666 457.844 55.666C457.766 55.666 457.655 55.857 457.596 56.09C457.458 56.64 457.208 56.475 457.071 55.744C457.011 55.426 456.902 55.166 456.828 55.166C456.754 55.166 456.643 54.941 456.583 54.666C456.523 54.391 456.408 54.166 456.327 54.166C456.247 54.166 456.132 53.904 456.072 53.583C456.012 53.262 455.902 53 455.828 53C455.754 53 455.643 52.775 455.583 52.5C455.523 52.225 455.405 52 455.322 52C455.238 52 455.122 51.7 455.064 51.333C455.005 50.966 454.898 50.666 454.825 50.666C454.752 50.666 454.643 50.441 454.583 50.166C454.523 49.891 454.408 49.666 454.327 49.666C454.247 49.666 454.132 49.404 454.072 49.083C454.012 48.762 453.902 48.5 453.828 48.5C453.754 48.5 453.643 48.275 453.583 48C453.523 47.725 453.41 47.5 453.333 47.5C453.256 47.5 453.143 47.275 453.083 47C453.023 46.725 452.914 46.5 452.841 46.5C452.768 46.5 452.661 46.2 452.602 45.833C452.544 45.466 452.428 45.166 452.344 45.166C452.261 45.166 452.143 44.941 452.083 44.666C452.023 44.391 451.912 44.166 451.838 44.166C451.764 44.166 451.654 43.904 451.594 43.583C451.534 43.262 451.421 43 451.344 43C451.266 43 451.153 42.803 451.093 42.563C450.895 41.775 450.641 41.666 448.998 41.666H447.473L447.584 42.171ZM284.852 42.666C284.919 42.666 285.023 42.891 285.083 43.166C285.143 43.441 285.254 43.666 285.328 43.666C285.402 43.666 285.512 43.929 285.572 44.25C285.632 44.571 285.753 44.833 285.841 44.833C285.928 44.833 286 44.942 286 45.076C286 45.21 286.333 45.966 286.74 46.757C287.147 47.548 287.528 48.414 287.586 48.681C287.645 48.948 287.756 49.166 287.833 49.166C287.91 49.166 288.023 49.391 288.083 49.666C288.143 49.941 288.262 50.166 288.346 50.166C288.431 50.166 288.5 50.279 288.5 50.416C288.5 50.632 287.926 50.666 284.333 50.666C281.666 50.666 280.166 50.606 280.166 50.5C280.166 50.408 280.233 50.333 280.314 50.333C280.396 50.333 280.512 50.071 280.572 49.75C280.632 49.429 280.747 49.166 280.827 49.166C280.908 49.166 281.023 48.941 281.083 48.666C281.143 48.391 281.256 48.166 281.333 48.166C281.41 48.166 281.523 47.941 281.583 47.666C281.643 47.391 281.756 47.166 281.833 47.166C281.91 47.166 282.023 46.941 282.083 46.666C282.143 46.391 282.256 46.166 282.333 46.166C282.41 46.166 282.523 45.941 282.583 45.666C282.643 45.391 282.754 45.166 282.828 45.166C282.902 45.166 283.012 44.904 283.072 44.583C283.132 44.262 283.253 44 283.341 44C283.428 44 283.5 43.92 283.5 43.823C283.5 43.725 283.703 43.219 283.951 42.698C284.4 41.755 284.404 41.752 284.567 42.208C284.657 42.46 284.785 42.666 284.852 42.666ZM369.505 44.35C369.553 44.424 369.909 44.535 370.296 44.596C370.683 44.658 371 44.774 371 44.854C371 44.934 371.078 45 371.173 45C371.573 45 374 47.131 374 47.481C374 47.561 374.107 47.715 374.239 47.824C374.371 47.933 374.53 48.261 374.593 48.553C374.656 48.844 374.778 49.128 374.863 49.182C374.949 49.236 375.062 49.705 375.116 50.224C375.169 50.742 375.277 51.166 375.356 51.166C375.435 51.166 375.5 51.466 375.5 51.833C375.5 52.2 375.435 52.5 375.356 52.5C375.277 52.5 375.17 52.967 375.119 53.537C375.067 54.108 374.944 54.602 374.845 54.634C374.747 54.667 374.666 54.833 374.666 55.002C374.666 55.171 374.564 55.412 374.438 55.537C374.313 55.663 374.157 55.933 374.092 56.137C373.895 56.758 371.648 58.833 371.173 58.833C371.078 58.833 371 58.899 371 58.981C371 59.062 370.662 59.179 370.25 59.241C369.837 59.303 369.5 59.424 369.5 59.51C369.5 59.709 366.051 59.718 365.928 59.519C365.878 59.437 365.555 59.318 365.21 59.253C364.866 59.189 364.546 59.086 364.5 59.026C364.454 58.966 364.143 58.777 363.808 58.607C363.099 58.247 361.5 56.709 361.5 56.387C361.5 56.266 361.438 56.166 361.363 56.166C361.188 56.166 360.5 54.799 360.5 54.454C360.5 54.311 360.406 54.163 360.291 54.125C360.013 54.032 359.993 49.878 360.27 49.702C360.373 49.637 360.511 49.339 360.575 49.041C360.64 48.743 360.754 48.5 360.828 48.5C360.903 48.5 361.011 48.312 361.068 48.083C361.126 47.854 361.246 47.666 361.336 47.666C361.426 47.666 361.5 47.569 361.5 47.449C361.5 46.773 363.957 44.934 365.5 44.456C366.915 44.017 369.245 43.956 369.505 44.35ZM189.74 44.317C189.791 44.4 190.208 44.52 190.667 44.583C191.125 44.646 191.5 44.76 191.5 44.835C191.5 44.911 191.725 45.023 192 45.083C192.275 45.143 192.5 45.264 192.5 45.351C192.5 45.439 192.631 45.557 192.791 45.614C193.044 45.704 194.179 46.81 194.782 47.553C195.137 47.992 195.666 49.071 195.666 49.358C195.666 49.512 195.76 49.67 195.875 49.708C196.154 49.801 196.173 54.288 195.896 54.464C195.793 54.529 195.655 54.827 195.591 55.125C195.526 55.423 195.404 55.666 195.32 55.666C195.235 55.666 195.166 55.764 195.166 55.882C195.166 56.458 192.757 58.833 192.173 58.833C192.078 58.833 192 58.905 192 58.992C192 59.08 191.736 59.201 191.414 59.261C191.093 59.321 190.788 59.437 190.738 59.519C190.688 59.6 190.314 59.666 189.906 59.666C189.499 59.666 189.166 59.741 189.166 59.833C189.166 59.925 188.941 60 188.666 60C188.391 60 188.166 59.925 188.166 59.833C188.166 59.741 187.829 59.666 187.416 59.666C187.004 59.666 186.666 59.591 186.666 59.5C186.666 59.408 186.543 59.333 186.393 59.333C185.473 59.333 182.503 57.076 182.5 56.375C182.5 56.26 182.433 56.166 182.351 56.166C182.269 56.166 182.151 55.961 182.088 55.71C182.025 55.459 181.898 55.207 181.807 55.15C181.716 55.094 181.599 54.737 181.548 54.357C181.497 53.977 181.391 53.666 181.311 53.666C181.108 53.666 181.129 50.542 181.333 50.416C181.425 50.36 181.5 50.163 181.5 49.98C181.5 49.665 182.105 48.293 182.548 47.603C182.818 47.183 184.243 45.742 184.525 45.605C184.649 45.545 185.087 45.305 185.5 45.072C185.912 44.84 186.568 44.605 186.958 44.552C187.348 44.498 187.666 44.39 187.666 44.31C187.666 44.118 189.621 44.125 189.74 44.317ZM230 44.323C230 44.409 230.337 44.53 230.75 44.592C231.162 44.654 231.5 44.765 231.5 44.839C231.5 44.913 231.725 45.023 232 45.083C232.275 45.143 232.5 45.262 232.5 45.346C232.5 45.431 232.597 45.5 232.716 45.5C233 45.5 234.666 47.162 234.666 47.446C234.666 47.567 234.733 47.666 234.815 47.666C234.897 47.666 235.015 47.872 235.078 48.123C235.141 48.374 235.256 48.619 235.333 48.666C235.41 48.714 235.525 48.959 235.588 49.21L235.702 49.666H228.684C222.88 49.666 221.666 49.627 221.666 49.44C221.666 49.15 222.662 47.268 222.854 47.194C222.934 47.164 223 47.059 223 46.961C223 46.731 224.094 45.666 224.33 45.666C224.429 45.666 224.551 45.561 224.6 45.431C224.65 45.302 224.891 45.146 225.135 45.085C225.38 45.023 225.626 44.898 225.682 44.807C225.739 44.716 226.096 44.599 226.476 44.548C226.856 44.497 227.166 44.391 227.166 44.311C227.166 44.231 227.804 44.166 228.583 44.166C229.362 44.166 230 44.237 230 44.323ZM256.5 44.31C256.5 44.39 256.826 44.499 257.225 44.554C257.858 44.641 258.92 45.071 259.166 45.341C259.212 45.391 259.511 45.615 259.831 45.839C260.533 46.33 261 46.783 261 46.974C261 47.051 261.15 47.25 261.333 47.416C261.516 47.582 261.666 47.813 261.666 47.928C261.666 48.044 261.743 48.164 261.837 48.195C261.931 48.227 262.055 48.552 262.113 48.918C262.171 49.284 262.287 49.628 262.371 49.683C262.607 49.839 262.623 53.484 262.388 53.631C262.281 53.698 262.141 53.959 262.078 54.21C262.015 54.461 261.903 54.666 261.828 54.666C261.754 54.666 261.643 54.891 261.583 55.166C261.523 55.441 261.404 55.666 261.32 55.666C261.235 55.666 261.166 55.767 261.166 55.891C261.166 56.014 261.016 56.25 260.833 56.416C260.65 56.582 260.5 56.779 260.5 56.853C260.5 57.435 257.582 59.333 256.686 59.333C256.503 59.333 256.306 59.408 256.25 59.5C256.124 59.704 253.721 59.724 253.597 59.522C253.547 59.442 253.214 59.33 252.855 59.272C252.496 59.215 252.159 59.055 252.106 58.917C252.053 58.779 251.895 58.666 251.755 58.666C251.615 58.666 251.5 58.608 251.5 58.536C251.5 58.464 251.292 58.282 251.039 58.133C250.217 57.647 249 56.278 249 55.84C249 55.744 248.931 55.666 248.846 55.666C248.762 55.666 248.64 55.423 248.575 55.125C248.511 54.827 248.373 54.529 248.27 54.464C247.759 54.14 248.043 49.989 248.659 48.789C248.975 48.172 249.294 47.666 249.367 47.666C249.44 47.666 249.5 47.581 249.5 47.477C249.5 47.237 251.087 45.666 251.329 45.666C251.429 45.666 251.552 45.558 251.602 45.427C251.653 45.295 251.913 45.139 252.18 45.08C252.448 45.021 252.666 44.911 252.666 44.835C252.666 44.76 253.041 44.646 253.499 44.583C253.958 44.52 254.375 44.4 254.426 44.317C254.545 44.125 256.5 44.118 256.5 44.31ZM340.74 44.317C340.791 44.4 341.208 44.52 341.667 44.583C342.125 44.646 342.5 44.757 342.5 44.831C342.5 44.904 342.689 45.011 342.921 45.069C343.152 45.127 343.479 45.304 343.647 45.462C343.815 45.62 344.226 45.969 344.56 46.237C344.893 46.505 345.166 46.796 345.166 46.885C345.166 46.973 345.345 47.21 345.564 47.413C345.782 47.615 346.017 47.961 346.086 48.182C346.155 48.403 346.274 48.624 346.351 48.673C346.428 48.723 346.541 49.304 346.603 49.965C346.664 50.626 346.778 51.166 346.857 51.166C346.935 51.166 347 51.616 347 52.166C347 52.716 346.931 53.166 346.846 53.166C346.762 53.166 346.643 53.391 346.583 53.666C346.523 53.941 346.41 54.166 346.333 54.166C346.256 54.166 346.143 54.391 346.083 54.666C346.023 54.941 345.912 55.166 345.838 55.166C345.763 55.166 345.654 55.36 345.594 55.597C345.535 55.834 345.302 56.199 345.076 56.408C344.851 56.617 344.666 56.847 344.666 56.919C344.666 57.107 343.548 58.166 343.35 58.166C343.258 58.166 343.123 58.26 343.05 58.375C342.865 58.663 341.456 59.333 341.033 59.333C340.842 59.333 340.64 59.408 340.583 59.5C340.457 59.704 338.055 59.724 337.93 59.522C337.881 59.442 337.539 59.329 337.17 59.27C336.801 59.211 336.5 59.093 336.5 59.009C336.5 58.925 336.351 58.808 336.169 58.75C335.771 58.624 335.192 58.157 334.269 57.22C333.315 56.25 333.195 56.088 333.072 55.597C333.012 55.36 332.901 55.166 332.825 55.166C332.749 55.166 332.636 54.829 332.574 54.416C332.512 54.004 332.395 53.666 332.314 53.666C332.109 53.666 332.127 50.544 332.333 50.416C332.425 50.36 332.5 50.163 332.5 49.98C332.5 49.665 333.105 48.293 333.548 47.603C333.818 47.183 335.243 45.742 335.525 45.605C335.649 45.545 336.087 45.305 336.5 45.072C336.912 44.84 337.568 44.605 337.958 44.552C338.348 44.498 338.666 44.39 338.666 44.31C338.666 44.118 340.621 44.125 340.74 44.317ZM396.238 44.314C396.288 44.395 396.586 44.51 396.9 44.569C398.319 44.835 400.847 46.75 401.098 47.748C401.155 47.978 401.263 48.166 401.338 48.166C401.412 48.166 401.523 48.391 401.583 48.666C401.643 48.941 401.762 49.166 401.846 49.166C401.931 49.166 402 49.279 402 49.416C402 49.635 401.111 49.666 395 49.666C387.094 49.666 387.684 49.791 388.423 48.281C389.326 46.437 389.937 45.826 391.781 44.923C392.257 44.69 392.796 44.5 392.98 44.5C393.163 44.5 393.36 44.425 393.416 44.333C393.544 44.127 396.112 44.11 396.238 44.314Z" fill="#D9D9D9"/>
<path fill-rule="evenodd" clip-rule="evenodd" d="M198.542 54.1151C198.702 54.1571 198.965 54.1571 199.125 54.1151C199.285 54.0731 199.154 54.0391 198.833 54.0391C198.512 54.0391 198.381 54.0731 198.542 54.1151Z" fill="#D9D9D9"/>
<path fill-rule="evenodd" clip-rule="evenodd" d="M198.542 54.1151C198.702 54.1571 198.965 54.1571 199.125 54.1151C199.285 54.0731 199.154 54.0391 198.833 54.0391C198.512 54.0391 198.381 54.0731 198.542 54.1151Z" fill="#D9D9D9"/>
<path fill-rule="evenodd" clip-rule="evenodd" d="M198.542 54.1151C198.702 54.1571 198.965 54.1571 199.125 54.1151C199.285 54.0731 199.154 54.0391 198.833 54.0391C198.512 54.0391 198.381 54.0731 198.542 54.1151Z" fill="#D9D9D9"/>
<path fill-rule="evenodd" clip-rule="evenodd" d="M198.542 54.1151C198.702 54.1571 198.965 54.1571 199.125 54.1151C199.285 54.0731 199.154 54.0391 198.833 54.0391C198.512 54.0391 198.381 54.0731 198.542 54.1151Z" fill="#D9D9D9"/>
<g clip-path="url(#clip0_46_380)">
<path d="M79.5236 53.2752L79.4995 53.7746C86.029 54.0898 91.9228 54.5922 95.3375 55.1218L95.3378 55.1218C95.9267 55.2129 96.9402 55.3665 97.591 55.463C98.2367 55.5587 99.1415 55.7072 99.5976 55.7922L99.598 55.7923C100.063 55.8788 100.712 55.9951 101.04 56.0509L101.04 56.0509C105.192 56.7558 108.611 57.6128 113.034 59.058L113.189 58.5827L113.034 59.058C115.49 59.8604 116.6 60.1902 119.849 61.0839L119.981 60.6019L119.849 61.0839C127.713 63.2473 131.214 64.5823 133.913 66.432L133.208 66.2771L134.074 67.375L134.108 67.4178C134.011 67.39 133.891 67.3535 133.742 67.3058C132.963 67.0572 131.507 66.5484 128.741 65.5758L122.889 63.5186L122.355 63.3307L122.235 63.8843L122.206 64.0174C121.972 63.9692 121.638 63.8942 121.208 63.7932C120.3 63.5796 118.979 63.2537 117.312 62.8306C115.862 62.4627 114.535 62.1351 113.565 61.9036C113.08 61.7879 112.682 61.6957 112.401 61.6344C112.261 61.6039 112.146 61.58 112.063 61.5647C112.022 61.5573 111.981 61.5503 111.945 61.546C111.929 61.544 111.901 61.5409 111.869 61.5404C111.854 61.5402 111.823 61.5402 111.785 61.5455L111.784 61.5456C111.767 61.5478 111.64 61.5634 111.525 61.6621L79.5236 53.2752ZM79.5236 53.2752L79.4995 53.7746C76.3823 53.6241 65.7141 53.6055 63.1399 53.7455C61.7622 53.8204 58.2105 54.1503 53.7149 54.6219L46.526 55.3762L43.7593 55.9531C33.5998 58.072 26.062 60.106 19.2385 62.5661C18.1448 62.9605 16.3005 63.605 15.1374 63.9995L15.1373 63.9995C13.0426 64.7097 11.581 65.2704 10.6485 65.7243C10.1797 65.9526 9.87062 66.1416 9.68582 66.2938C9.66972 66.3071 9.65517 66.3195 9.64204 66.3312C9.68796 66.3319 9.73969 66.3323 9.79816 66.3323C10.5902 66.3323 11.3082 66.1605 13.8673 65.2753L13.8673 65.2753C17.5516 64.001 23.7494 62.6798 27.0528 62.4698C27.4019 62.4476 27.6856 62.4298 27.9045 62.4287C28.1072 62.4277 28.3369 62.4379 28.5327 62.523C28.6443 62.5714 28.7498 62.6456 28.8339 62.7537C28.9153 62.8585 28.9572 62.9704 28.9804 63.067C29.0192 63.2282 29.0191 63.4186 29.019 63.5699C29.019 63.5773 29.0189 63.5845 29.0189 63.5916V63.5918L29.019 63.5922L29.019 63.5938L29.019 63.5994L29.0193 63.6181L29.0208 63.6793C29.022 63.7299 29.024 63.7988 29.0265 63.8851C29.0315 64.0576 29.039 64.2982 29.0486 64.5993C29.0679 65.2016 29.0958 66.0447 29.1302 67.0672C29.199 69.1121 29.2939 71.8737 29.3983 74.8583C29.566 79.6565 29.7098 83.834 29.7596 85.3511C29.8656 85.2209 29.9854 85.0667 30.1203 84.8868C30.2302 84.7403 30.3784 84.7047 30.4159 84.6962C30.4717 84.6836 30.5182 84.6829 30.5408 84.6831C30.589 84.6836 30.6314 84.69 30.6555 84.6941C30.7092 84.7032 30.7686 84.7178 30.824 84.733C30.9389 84.7643 31.0845 84.8111 31.2356 84.8653L31.2357 84.8653L31.4641 84.9473L31.4857 84.9267L31.4861 84.9264C31.4861 84.9264 31.4878 84.9247 31.4914 84.9208C31.495 84.917 31.4997 84.9118 31.5055 84.9049C31.5174 84.891 31.5321 84.8727 31.5494 84.8497C31.5842 84.8036 31.6248 84.745 31.6682 84.6772C31.7555 84.5411 31.8458 84.3818 31.9163 84.2359C32.0553 83.9481 32.1938 83.6703 32.3944 83.4932C32.642 83.2746 32.9184 83.2522 33.1383 83.2509C33.1516 83.2401 33.1751 83.2173 33.2097 83.1724C33.3142 83.0367 33.4473 82.7882 33.6257 82.3573L33.6258 82.3572C33.6364 82.3316 33.6468 82.3062 33.657 82.2812C33.7842 81.9715 33.8931 81.7064 34.1672 81.4532C34.3985 81.2394 34.758 81.0259 35.3333 80.6843C35.3799 80.6566 35.428 80.6281 35.4775 80.5986C36.4628 80.0124 36.9533 79.4625 37.1782 78.8452C37.2134 78.7482 37.2614 78.6508 37.3188 78.5679C37.3427 78.5333 37.3762 78.4898 37.4199 78.4478C37.4262 78.4275 37.433 78.4079 37.4395 78.3898C37.4608 78.3304 37.4888 78.2624 37.519 78.1929C37.58 78.0525 37.6605 77.8827 37.7427 77.7177C37.825 77.5527 37.9122 77.3863 37.9877 77.253C38.025 77.1871 38.0625 77.1238 38.0971 77.071C38.1142 77.0448 38.1341 77.0158 38.1557 76.988C38.1653 76.9757 38.1869 76.948 38.2185 76.917C38.2258 76.9047 38.2364 76.886 38.2503 76.8592C38.2902 76.7823 38.3419 76.6694 38.4035 76.5221C38.5259 76.2296 38.6751 75.8318 38.8317 75.3823C39.145 74.4825 39.4781 73.4036 39.6764 72.5936L39.6764 72.5936C40.3233 69.9509 40.7542 65.8686 40.7586 62.276C40.7586 62.276 40.7586 62.276 40.7586 62.2759L40.7596 61.2976L40.76 60.8692L41.1834 60.804L42.0484 60.6706L42.0485 60.6706C43.6877 60.4183 45.5994 60.2244 47.27 60.1202C48.9209 60.0173 50.3947 59.9977 51.1259 60.1145L51.126 60.1145C51.6972 60.2059 52.1644 60.4466 52.6264 60.9321C53.0651 61.393 53.5036 62.0797 54.0475 63.059L54.0475 63.059C54.408 63.7082 55.0318 64.7534 55.4295 65.3749C59.679 72.0135 62.4076 77.2202 63.9202 81.6099L63.9202 81.6099C64.2563 82.5856 64.583 83.4366 64.8719 84.1005C65.1639 84.7715 65.3986 85.2064 65.5487 85.3983L66.119 85.2564L66.1191 85.2564C66.7008 85.1119 67.2835 84.8858 68.1924 84.4402L68.4125 84.8892L68.1924 84.4402C68.3583 84.3589 68.507 84.2851 68.6385 84.2198C68.8019 84.1387 68.9387 84.0708 69.0491 84.018C69.2319 83.9305 69.4218 83.8431 69.5893 83.8155C69.6888 83.7992 69.8231 83.7953 69.9641 83.8542C70.1057 83.9133 70.1933 84.0104 70.2443 84.0807C70.2881 84.1411 70.3227 84.2076 70.3423 84.2452L70.3447 84.2499C70.3688 84.2963 70.3881 84.3339 70.4135 84.3772L69.9825 84.6306L70.4136 84.3772C70.4427 84.4268 70.4744 84.4747 70.5071 84.5197C70.5689 84.4046 70.6367 84.2744 70.7066 84.136C71.3327 82.8947 71.6291 82.4247 73.6265 79.4725C75.6406 76.4952 76.3366 75.3042 76.9185 73.8826L77.3812 74.0721L76.9185 73.8826L77.3636 72.7954L77.4408 72.6069L77.6278 72.526L78.1047 72.3196L78.3032 72.7785L78.1047 72.3196C79.8993 71.5432 82.7524 71.1582 88.902 70.7946C92.1665 70.6016 94.4903 70.4116 95.2156 70.2847C95.3916 70.2539 95.8289 70.223 96.3514 70.1952C96.8913 70.1664 97.5642 70.1392 98.2409 70.1202L98.2549 70.62L98.2409 70.1202C100.65 70.0529 101.228 69.9673 101.808 69.7119L101.808 69.7119C102.071 69.5961 102.297 69.7155 102.391 69.7801C102.493 69.8499 102.579 69.9448 102.648 70.0307C102.79 70.2095 102.964 70.4826 103.178 70.8535C103.611 71.6032 104.261 72.8447 105.241 74.7701C106.247 76.7458 107.279 78.6906 107.538 79.1058L107.114 79.3705L107.538 79.1058C108.382 80.4592 109.418 81.6889 110.377 82.5572C110.857 82.9918 111.306 83.3253 111.693 83.5392C112.095 83.7624 112.361 83.8169 112.499 83.8009L112.499 83.8009C114.298 83.5926 115.452 82.686 115.992 81.261C116.548 79.7954 116.482 77.706 115.621 75.1256L115.621 75.1255L115.615 75.1061C115.507 74.7842 115.422 74.5296 115.366 74.3393C115.337 74.242 115.313 74.1511 115.296 74.0701C115.281 73.9973 115.264 73.8947 115.273 73.7885C115.282 73.6833 115.329 73.4562 115.562 73.3283C115.671 73.2681 115.779 73.2558 115.863 73.2593M79.5236 53.2752L115.863 73.2593M115.863 73.2593C115.842 73.2073 115.819 73.1524 115.795 73.0944C115.644 72.732 115.446 72.2667 115.191 71.6703C115.11 71.4789 115.022 71.274 114.929 71.0547C114.57 70.2131 114.247 69.4439 114.016 68.8823C113.9 68.6019 113.806 68.3715 113.742 68.2091C113.711 68.1286 113.685 68.0611 113.667 68.0115C113.658 67.9879 113.649 67.9613 113.642 67.9368C113.638 67.9265 113.632 67.9035 113.626 67.8762C113.624 67.8647 113.618 67.833 113.616 67.7924C113.616 67.7728 113.615 67.7323 113.625 67.6824C113.632 67.6432 113.657 67.5271 113.76 67.4227L113.767 67.4153L113.767 67.4153C113.868 67.3171 113.979 67.2912 114.009 67.2844C114.053 67.2746 114.089 67.2728 114.106 67.2723C114.143 67.2713 114.173 67.2745 114.185 67.2759C114.213 67.2791 114.24 67.2842 114.256 67.2875C114.292 67.2949 114.337 67.3055 114.383 67.3173C114.479 67.3415 114.61 67.3773 114.766 67.4215C115.08 67.5102 115.506 67.636 115.969 67.7776C116.545 67.9538 117.002 68.0822 117.352 68.1642C117.341 68.1525 117.329 68.1405 117.317 68.1283L117.317 68.1281L116.887 67.6861L116.061 66.8373H117.245H117.518C118.027 66.8373 118.682 66.9728 119.535 67.2348C120.395 67.4992 121.494 67.9049 122.904 68.4716L122.719 68.9323L122.904 68.4716C124.343 69.0502 125.374 69.4052 126.057 69.5618C126.098 69.5712 126.137 69.5798 126.175 69.5875C125.893 69.4293 125.5 69.2164 124.956 68.921L124.77 68.8201L125.009 68.3807L124.77 68.8201C123.928 68.363 123.383 68.0589 123.057 67.8566C122.899 67.7589 122.764 67.6678 122.67 67.5828C122.629 67.5451 122.552 67.471 122.5 67.364C122.477 67.3155 122.452 67.2452 122.446 67.1589C122.339 67.0778 122.16 66.9681 121.901 66.8343C121.313 66.5296 120.427 66.157 119.38 65.7706C117.288 64.9987 114.62 64.1962 112.544 63.7908L112.078 63.6999L111.799 63.6455L111.703 63.3783L111.505 62.8261L111.505 62.8259C111.444 62.6572 111.395 62.4884 111.367 62.3481C111.353 62.2804 111.341 62.2028 111.338 62.1281C111.337 62.0921 111.337 62.0368 111.348 61.9749C111.356 61.9335 111.386 61.7825 111.524 61.6634L115.863 73.2593ZM41.2596 61.2981L41.2586 62.2765L41.2596 61.2981ZM41.2596 61.2981L42.1246 61.1648L41.2596 61.2981ZM67.3442 60.3743C67.2625 60.6141 67.3288 60.8432 67.3826 60.9758C67.4436 61.1259 67.5351 61.2665 67.6328 61.3806C67.7254 61.4887 67.8567 61.612 68.0164 61.686C68.0971 61.7234 68.221 61.7649 68.3685 61.7514C68.5354 61.736 68.6889 61.6533 68.7942 61.5151L69.0703 60.8337L69.0707 60.8319C69.0781 60.8034 69.1217 60.6333 69.02 60.4546C68.9811 60.3864 68.9342 60.3359 68.8844 60.2987L68.9504 60.0279M67.3442 60.3743L67.8175 60.5355M67.3442 60.3743C67.3442 60.3744 67.3441 60.3744 67.3441 60.3744L67.8175 60.5355M67.3442 60.3743C67.3894 60.2416 67.4751 60.1618 67.5262 60.1227C67.5798 60.0817 67.6317 60.0573 67.666 60.0432C67.7347 60.0149 67.8034 59.9998 67.8538 59.9908C67.9596 59.9719 68.0826 59.9632 68.2 59.9607C68.4305 59.9557 68.7246 59.9728 68.9504 60.0279M67.8175 60.5355C67.7917 60.6113 67.8111 60.7111 67.8563 60.8121L67.8175 60.5355ZM68.9504 60.0279C69.0829 60.0602 69.2047 60.146 69.2776 60.2769C69.34 60.3892 69.3446 60.495 69.3428 60.5496C69.3392 60.6543 69.3053 60.7374 69.2921 60.7686C69.2583 60.8485 69.2101 60.9242 69.1705 60.98C69.1288 61.0389 69.0761 61.1042 69.0188 61.1607C69.0024 61.1769 68.9817 61.1963 68.9572 61.2163L68.9494 60.0276C68.9497 60.0277 68.9501 60.0278 68.9504 60.0279ZM134.855 66.6379C134.855 66.638 134.854 66.6379 134.85 66.6374C134.853 66.6376 134.855 66.6379 134.855 66.6379ZM122.568 66.7855L122.568 66.7858L122.568 66.7855ZM126.785 69.9695C126.785 69.9695 126.783 69.9677 126.78 69.9641C126.783 69.9677 126.785 69.9695 126.785 69.9695ZM126.797 69.6421C126.799 69.6413 126.801 69.6409 126.801 69.641C126.801 69.641 126.799 69.6415 126.797 69.6421ZM117.794 68.7027C117.793 68.7027 117.792 68.6995 117.79 68.6934C117.793 68.6997 117.794 68.7027 117.794 68.7027ZM29.2931 85.8424C29.2932 85.8423 29.2944 85.8415 29.2967 85.8404C29.2943 85.8418 29.2931 85.8424 29.2931 85.8424ZM29.7842 86.0563C29.7853 86.0603 29.7852 86.061 29.7844 86.0573L29.7842 86.0563ZM33.1253 83.2594C33.1253 83.259 33.1275 83.2575 33.1318 83.2558C33.1274 83.2589 33.1253 83.2598 33.1253 83.2594Z" stroke="#D9D9D9"/>
<path d="M43.3226 45.5008L43.3225 45.5009C43.1249 45.6322 42.9395 45.7501 42.799 45.8345C42.73 45.8761 42.6654 45.9133 42.6132 45.9406C42.5893 45.9531 42.555 45.9703 42.5188 45.9846C42.5037 45.9906 42.4656 46.0052 42.4172 46.0145C42.3943 46.019 42.3437 46.0274 42.2798 46.0225C42.2254 46.0183 42.0772 45.9981 41.9531 45.8673C41.8808 45.7911 41.8459 45.7094 41.8318 45.6741C41.8136 45.6286 41.8008 45.5836 41.7915 45.5461C41.7729 45.4705 41.7585 45.383 41.7466 45.2926C41.7224 45.1095 41.7027 44.8675 41.6863 44.5839C41.6536 44.0142 41.633 43.2416 41.6249 42.3602C41.6087 40.5962 41.6425 38.3744 41.733 36.4231C41.9795 31.1207 41.8889 27.5427 41.3393 24.971C40.7966 22.4313 39.8104 20.8917 38.2466 19.6435L38.2466 19.6435C36.8191 18.504 34.1844 17.772 31.6763 17.6105C30.4333 17.5304 29.2592 17.5934 28.3227 17.7997C27.3596 18.012 26.7591 18.351 26.5103 18.7261L26.5102 18.7262L26.3828 18.9181L26.431 20.4188L26.431 20.4188C26.4605 21.3406 26.5767 22.7978 26.6974 23.7582L26.6974 23.7584C26.8162 24.7077 26.9513 25.8285 26.9973 26.2492L26.9974 26.2496C27.0414 26.6548 27.1686 27.5743 27.2802 28.2887L27.2802 28.2889C27.4624 29.4589 27.5695 31.3404 28.101 42.5251C28.2692 46.0664 28.4243 49.2888 28.5386 51.6278C28.5957 52.7973 28.6426 53.7457 28.6759 54.4025C28.6842 54.5674 28.6917 54.7137 28.6983 54.8405C28.7112 54.837 28.7242 54.8335 28.7374 54.8299L28.7374 54.8299C40.901 51.4875 50.3043 49.8151 59.1422 49.4315C59.4285 49.4191 59.6983 49.4046 59.9284 49.3898C59.8163 49.2533 59.6792 49.0996 59.521 48.9366L59.5209 48.9365C59.354 48.7645 59.2036 48.6022 59.0952 48.4782C59.0423 48.4176 58.9933 48.3592 58.9566 48.3105C58.9403 48.289 58.9147 48.254 58.8924 48.2145C58.8837 48.1991 58.858 48.153 58.8407 48.0909C58.8323 48.0611 58.8161 47.9939 58.8238 47.9081C58.8322 47.8141 58.8745 47.6662 59.0152 47.5565C61.837 45.3543 64.5739 42.7766 66.1534 40.8436L66.1538 40.8432C66.2912 40.6754 66.5013 40.4319 66.6261 40.297M43.3226 45.5008L66.9932 40.6364M43.3226 45.5008C47.6022 42.6566 53.1259 35.8534 56.5232 29.3076L56.0795 29.0773M43.3226 45.5008L66.8673 16.7609M66.6261 40.297L66.9932 40.6364M66.6261 40.297C66.6259 40.2971 66.6258 40.2973 66.6256 40.2975L66.9932 40.6364M66.6261 40.297C66.7329 40.1811 66.9141 39.9677 67.0229 39.8295C67.1444 39.6751 67.3227 39.465 67.4268 39.3564M66.9932 40.6364C67.1096 40.5102 67.2996 40.2863 67.4157 40.1388C67.5318 39.9913 67.6992 39.7947 67.788 39.7021M67.4268 39.3564L67.788 39.7021M67.4268 39.3564C68.5324 38.2015 70.1425 35.7427 71.5576 33.1975C72.261 31.9324 72.9082 30.6603 73.4129 29.5381C73.9218 28.4065 74.2714 27.4583 74.399 26.8303C74.773 24.9893 74.1811 23.0318 72.8142 21.299C71.4478 19.5668 69.3242 18.0867 66.7125 17.2363L66.8673 16.7609M67.4268 39.3564C67.4269 39.3563 67.427 39.3562 67.4271 39.3561L67.788 39.7021M67.788 39.7021L62.2447 16.9645M66.8673 16.7609C64.7353 16.0666 63.4724 15.9963 62.0768 16.4935M66.8673 16.7609L66.7125 17.2363C64.6343 16.5596 63.4948 16.5191 62.2447 16.9645M62.0768 16.4935C61.4203 16.7276 61.0583 16.8528 60.8116 17.0953C60.5007 17.4009 60.3728 17.8926 60.0687 19.0227C59.5864 20.8143 57.0501 27.207 56.0795 29.0773M62.0768 16.4935L62.2447 16.9645M62.0768 16.4935L62.2447 16.9645L62.2447 16.9645M56.0795 29.0773L56.5232 29.3076C57.0218 28.3469 57.907 26.2588 58.722 24.2048C59.5358 22.1537 60.3016 20.0809 60.5515 19.1527L60.5515 19.1527L60.5647 19.1036C60.696 18.6156 60.789 18.27 60.8778 18.0064C60.9691 17.7351 61.0417 17.5963 61.1124 17.5073C61.1754 17.4279 61.2593 17.3598 61.4305 17.2774C61.6124 17.1899 61.8528 17.1042 62.2233 16.9721L62.2447 16.9645M56.0795 29.0773L62.2447 16.9645M80.0348 17.8118C80.0302 17.8422 80.0253 17.8744 80.0201 17.9083C79.9746 18.2081 79.9115 18.6401 79.8352 19.173C79.6826 20.2383 79.4782 21.7024 79.2586 23.3079C78.5 28.8535 78.4219 29.3267 77.7721 32.2617L77.7721 32.2617C76.2483 39.1422 75.0223 43.9414 73.7602 47.9581M80.0348 17.8118L72.9486 48.993H73.4632M80.0348 17.8118C80.248 17.7935 80.5449 17.7702 80.907 17.7433C81.6738 17.6863 82.7266 17.6136 83.8799 17.5389C85.0332 17.4643 86.1001 17.3996 86.8897 17.3556C87.2847 17.3336 87.6091 17.3168 87.8397 17.3065C87.9554 17.3014 88.0453 17.2979 88.108 17.2963C88.1334 17.2956 88.1524 17.2952 88.1659 17.2951C88.3736 17.3274 89.3243 17.4682 90.3777 17.6223C91.7428 17.8222 92.611 17.9546 93.1833 18.054C93.7635 18.1547 94.0067 18.2164 94.1436 18.2675M80.0348 17.8118L87.7146 49.6136M73.7602 47.9581L73.2832 47.8082L73.7602 47.958C73.7602 47.958 73.7602 47.9581 73.7602 47.9581ZM73.7602 47.9581C73.6569 48.2871 73.5633 48.6107 73.4961 48.8654C73.4842 48.9106 73.4732 48.9533 73.4632 48.993M73.4632 48.993H74.7776C77.7594 48.993 82.9332 49.2268 86.6932 49.531L87.7146 49.6136M73.4632 48.993C73.445 49.0654 73.4302 49.1282 73.419 49.1798C73.404 49.2487 73.4007 49.2756 73.4001 49.2756L87.7146 49.6136M87.7146 49.6136L87.8345 49.4676L87.8346 49.4675C88.1132 49.1284 88.4589 48.4798 88.8138 47.5977C89.1635 46.7284 89.5064 45.6725 89.7925 44.5511C89.8021 44.5133 89.8115 44.4763 89.8208 44.44C89.8966 44.1422 89.9596 43.8947 90.0162 43.7164C90.0475 43.6177 90.0854 43.512 90.1344 43.4208C90.1693 43.3558 90.2778 43.1627 90.5114 43.0926C90.8002 43.0059 91.0124 43.1704 91.0898 43.244C91.1739 43.324 91.2387 43.4233 91.2852 43.5007C91.3715 43.6441 91.4742 43.85 91.5924 44.0869C91.6072 44.1164 91.6222 44.1465 91.6375 44.177L91.1903 44.4006L91.6375 44.177C91.9671 44.8362 92.5279 46.2371 93.0011 47.5107C93.2392 48.1516 93.4587 48.7697 93.6194 49.2579C93.6996 49.5015 93.7667 49.7172 93.8143 49.8893C93.8323 49.9542 93.8483 50.0156 93.8614 50.0718C93.9461 50.0908 94.0549 50.1136 94.1944 50.1413C94.9262 50.2863 96.4057 50.547 99.3814 51.0711C99.949 51.1711 100.571 51.2807 101.253 51.4008L101.166 51.8933L101.253 51.4009L101.692 51.4783C105.364 52.126 107.172 52.4448 108.042 52.5469C108.053 52.5481 108.063 52.5493 108.073 52.5505C106.91 49.6339 105.524 44.2283 103.934 36.4625C103.291 33.3213 103.048 32.1385 102.896 30.9439C102.803 30.2115 102.745 29.4746 102.65 28.2792C102.408 25.2352 102.119 23.3047 101.651 22.017C101.2 20.7737 100.593 20.1539 99.6722 19.7093L99.6722 19.7093C99.1145 19.4399 98.2744 19.1444 97.4227 18.9053C96.5677 18.6652 95.7461 18.4947 95.2243 18.4579L95.2595 17.9591L95.2243 18.4579C94.8641 18.4325 94.382 18.3567 94.1436 18.2675M94.1436 18.2675L94.3189 17.7992L94.144 18.2676C94.1438 18.2676 94.1437 18.2675 94.1436 18.2675ZM59.6409 48.3366C59.6409 48.3366 59.6408 48.3366 59.6408 48.3365C59.6377 48.3391 59.6345 48.3416 59.6313 48.3441C59.6345 48.3416 59.6377 48.3391 59.6409 48.3366ZM60.3574 49.459L60.3568 49.4595L60.3574 49.459ZM88.1877 17.2953C88.1874 17.2953 88.1853 17.2953 88.1817 17.2951L88.1877 17.2953ZM108.564 52.5787C108.564 52.5787 108.563 52.5789 108.561 52.5792C108.563 52.5787 108.565 52.5786 108.564 52.5787ZM93.8814 50.3517C93.891 50.416 93.8857 50.4725 93.8774 50.5127C93.8728 50.5355 93.8609 50.5722 93.861 50.5723C93.861 50.5723 93.8633 50.5653 93.8695 50.5471C93.8795 50.5177 93.9027 50.4456 93.9022 50.3516C93.9022 50.3513 93.9022 50.351 93.9022 50.3506L93.8813 50.3508L93.8814 50.3517Z" stroke="#D9D9D9"/>
<path d="M94.8605 17.8195C94.7765 17.8005 94.7042 17.7873 94.6446 17.78C94.6342 17.8225 94.6298 17.865 94.6306 17.9063C94.6985 17.9162 94.7799 17.9209 94.8635 17.9185C94.8897 17.9177 94.914 17.917 94.9362 17.9163C94.9416 17.8919 94.9452 17.8664 94.9466 17.84C94.9167 17.8326 94.8881 17.8257 94.8607 17.8195C94.8606 17.8195 94.8606 17.8195 94.8605 17.8195Z" stroke="#D9D9D9"/>
<path d="M38.0788 78.321C38.1125 78.2506 38.1374 78.1927 38.1543 78.1479C38.1369 78.138 38.119 78.1292 38.1007 78.1215C38.0749 78.1622 38.0435 78.2172 38.0074 78.2868L38.0788 78.321ZM38.0788 78.321C38.0784 78.3221 38.0779 78.3231 38.0774 78.3241L38.007 78.2877M38.0788 78.321L38.0074 78.2869C38.0072 78.2872 38.0071 78.2874 38.007 78.2877M38.007 78.2877C37.9731 78.353 37.9453 78.416 37.9267 78.4669C37.9394 78.4742 37.9528 78.4811 37.9669 78.4877C37.9728 78.4904 37.9788 78.4931 37.9847 78.4956C38.0127 78.4507 38.045 78.3913 38.0773 78.3242L38.007 78.2877Z" stroke="#D9D9D9"/>
</g>
<defs>
<clipPath id="clip0_46_380">
<rect width="135" height="92" fill="white"/>
</clipPath>
</defs>
</svg>
