<svg width="314" height="36" viewBox="0 0 314 36" fill="none" xmlns="http://www.w3.org/2000/svg">
<path fill-rule="evenodd" clip-rule="evenodd" d="M221.166 5.27V10.54L220.516 9.869C220.158 9.501 219.708 9.149 219.516 9.088C219.324 9.027 219.166 8.913 219.166 8.835C219.166 8.757 218.941 8.643 218.666 8.583C218.391 8.523 218.166 8.412 218.166 8.338C218.166 8.263 217.961 8.151 217.71 8.088C217.459 8.025 217.208 7.9 217.152 7.81C217.097 7.721 216.628 7.604 216.109 7.55C215.591 7.497 215.166 7.389 215.166 7.31C215.166 7.231 214.341 7.166 213.333 7.166C212.325 7.166 211.5 7.234 211.5 7.317C211.5 7.399 211.05 7.519 210.5 7.583C209.95 7.647 209.5 7.761 209.5 7.836C209.5 7.912 209.275 8.023 209 8.083C208.725 8.143 208.5 8.254 208.5 8.328C208.5 8.403 208.312 8.511 208.083 8.568C207.854 8.626 207.666 8.746 207.666 8.836C207.666 8.926 207.583 9 207.48 9C207.24 9 204.666 11.586 204.666 11.828C204.666 11.928 204.558 12.052 204.427 12.102C204.295 12.153 204.139 12.413 204.08 12.68C204.021 12.948 203.908 13.166 203.827 13.166C203.747 13.166 203.63 13.448 203.567 13.791C203.503 14.135 203.369 14.47 203.267 14.535C202.993 14.712 203.011 21.531 203.286 21.623C203.398 21.66 203.537 21.948 203.596 22.262C203.655 22.576 203.762 22.833 203.833 22.833C203.905 22.833 204.011 23.021 204.068 23.25C204.126 23.479 204.246 23.666 204.336 23.666C204.426 23.666 204.5 23.781 204.5 23.922C204.5 24.062 204.612 24.22 204.75 24.273C204.887 24.325 205 24.465 205 24.582C205 24.875 206.729 26.611 207.155 26.746C207.345 26.806 207.5 26.925 207.5 27.011C207.5 27.096 207.615 27.166 207.755 27.166C207.895 27.166 208.053 27.277 208.104 27.412C208.156 27.547 208.473 27.708 208.807 27.769C209.142 27.831 209.462 27.951 209.517 28.036C209.573 28.122 209.929 28.233 210.309 28.284C210.689 28.335 211 28.442 211 28.522C211 28.601 212.125 28.666 213.5 28.666C214.875 28.666 216 28.601 216 28.521C216 28.441 216.375 28.326 216.833 28.265C217.291 28.205 217.666 28.092 217.666 28.015C217.666 27.938 217.966 27.828 218.333 27.769C218.7 27.71 219 27.588 219 27.498C219 27.407 219.115 27.333 219.255 27.333C219.395 27.333 219.553 27.22 219.606 27.083C219.659 26.945 219.801 26.833 219.921 26.833C220.042 26.833 220.366 26.608 220.641 26.333C220.916 26.058 221.192 25.833 221.255 25.833C221.457 25.833 222.16 25.09 222.163 24.875C222.165 24.76 222.24 24.666 222.33 24.666C222.42 24.666 222.54 24.479 222.598 24.25C222.655 24.02 222.766 23.833 222.844 23.833C222.921 23.833 223.034 23.57 223.094 23.25C223.154 22.929 223.267 22.666 223.344 22.666C223.421 22.666 223.536 22.385 223.599 22.041C223.663 21.698 223.797 21.363 223.899 21.297C224.029 21.213 224.097 18.092 224.132 10.589L224.18 0H222.673H221.166V5.27ZM129.583 1.5C129.523 1.775 129.408 2 129.327 2C129.247 2 129.132 2.262 129.072 2.583C129.012 2.904 128.902 3.166 128.828 3.166C128.754 3.166 128.643 3.391 128.583 3.666C128.523 3.941 128.41 4.166 128.333 4.166C128.256 4.166 128.143 4.391 128.083 4.666C128.023 4.941 127.91 5.166 127.833 5.166C127.756 5.166 127.643 5.391 127.583 5.666C127.523 5.941 127.405 6.166 127.322 6.166C127.238 6.166 127.122 6.466 127.064 6.833C127.005 7.2 126.898 7.5 126.825 7.5C126.752 7.5 126.643 7.725 126.583 8C126.523 8.275 126.41 8.5 126.333 8.5C126.256 8.5 126.143 8.725 126.083 9C126.023 9.275 125.91 9.5 125.833 9.5C125.756 9.5 125.643 9.725 125.583 10C125.523 10.275 125.41 10.5 125.333 10.5C125.256 10.5 125.143 10.725 125.083 11C125.023 11.275 124.912 11.5 124.838 11.5C124.764 11.5 124.654 11.762 124.594 12.083C124.534 12.404 124.419 12.666 124.339 12.666C124.258 12.666 124.143 12.891 124.083 13.166C124.023 13.441 123.91 13.666 123.833 13.666C123.756 13.666 123.643 13.891 123.583 14.166C123.523 14.441 123.41 14.666 123.333 14.666C123.256 14.666 123.143 14.891 123.083 15.166C123.023 15.441 122.905 15.666 122.822 15.666C122.738 15.666 122.622 15.966 122.564 16.333C122.505 16.7 122.398 17 122.325 17C122.252 17 122.143 17.225 122.083 17.5C122.023 17.775 121.91 18 121.833 18C121.756 18 121.643 18.225 121.583 18.5C121.523 18.775 121.41 19 121.333 19C121.256 19 121.143 19.225 121.083 19.5C121.023 19.775 120.908 20 120.827 20C120.747 20 120.632 20.262 120.572 20.583C120.512 20.904 120.402 21.166 120.328 21.166C120.254 21.166 120.143 21.391 120.083 21.666C120.023 21.941 119.91 22.166 119.833 22.166C119.756 22.166 119.643 22.391 119.583 22.666C119.523 22.941 119.41 23.166 119.333 23.166C119.256 23.166 119.143 23.391 119.083 23.666C119.023 23.941 118.91 24.166 118.833 24.166C118.756 24.166 118.643 24.391 118.583 24.666C118.523 24.941 118.412 25.166 118.338 25.166C118.264 25.166 118.154 25.429 118.094 25.75C118.034 26.07 117.921 26.333 117.844 26.333C117.766 26.333 117.651 26.538 117.588 26.79C117.525 27.041 117.402 27.291 117.314 27.345C117.226 27.399 117.11 27.718 117.055 28.055L116.956 28.666H118.725C120.472 28.666 120.495 28.661 120.598 28.25C120.655 28.021 120.763 27.833 120.838 27.833C120.912 27.833 121.023 27.608 121.083 27.333C121.143 27.058 121.256 26.833 121.333 26.833C121.41 26.833 121.523 26.608 121.583 26.333C121.643 26.058 121.756 25.833 121.833 25.833C121.91 25.833 122.023 25.608 122.083 25.333C122.143 25.058 122.254 24.833 122.328 24.833C122.402 24.833 122.512 24.57 122.572 24.25C122.632 23.929 122.747 23.666 122.827 23.666C122.908 23.666 123.023 23.441 123.083 23.166C123.143 22.891 123.256 22.666 123.333 22.666C123.41 22.666 123.523 22.441 123.583 22.166C123.643 21.891 123.756 21.666 123.833 21.666C123.91 21.666 124.023 21.441 124.083 21.166C124.143 20.891 124.257 20.666 124.335 20.666C124.413 20.666 124.501 20.46 124.53 20.208L124.583 19.75L130.306 19.706C135.921 19.663 136.031 19.668 136.117 19.997C136.166 20.182 136.266 20.333 136.339 20.333C136.413 20.333 136.523 20.558 136.583 20.833C136.643 21.108 136.761 21.333 136.844 21.333C136.928 21.333 137.044 21.633 137.102 22C137.161 22.366 137.268 22.666 137.341 22.666C137.414 22.666 137.523 22.891 137.583 23.166C137.643 23.441 137.756 23.666 137.833 23.666C137.91 23.666 138.023 23.891 138.083 24.166C138.143 24.441 138.256 24.666 138.333 24.666C138.41 24.666 138.523 24.891 138.583 25.166C138.643 25.441 138.756 25.666 138.833 25.666C138.91 25.666 139.023 25.891 139.083 26.166C139.143 26.441 139.258 26.666 139.339 26.666C139.419 26.666 139.534 26.929 139.594 27.25C139.654 27.57 139.762 27.833 139.833 27.833C139.905 27.833 140.011 28.021 140.068 28.25C140.171 28.661 140.194 28.666 141.933 28.666H143.693L143.582 28.164C143.522 27.887 143.142 27.006 142.738 26.205C142.335 25.405 142.003 24.618 142.002 24.458C142.001 24.298 141.931 24.166 141.846 24.166C141.762 24.166 141.643 23.941 141.583 23.666C141.523 23.391 141.41 23.166 141.333 23.166C141.256 23.166 141.143 22.941 141.083 22.666C141.023 22.391 140.91 22.166 140.833 22.166C140.756 22.166 140.643 21.941 140.583 21.666C140.523 21.391 140.412 21.166 140.338 21.166C140.264 21.166 140.154 20.904 140.094 20.583C140.034 20.262 139.919 20 139.839 20C139.758 20 139.643 19.775 139.583 19.5C139.523 19.225 139.41 19 139.333 19C139.256 19 139.143 18.775 139.083 18.5C139.023 18.225 138.905 18 138.822 18C138.738 18 138.622 17.7 138.564 17.333C138.505 16.966 138.398 16.666 138.325 16.666C138.252 16.666 138.143 16.441 138.083 16.166C138.023 15.891 137.91 15.666 137.833 15.666C137.756 15.666 137.643 15.441 137.583 15.166C137.523 14.891 137.41 14.666 137.333 14.666C137.256 14.666 137.143 14.441 137.083 14.166C137.023 13.891 136.912 13.666 136.838 13.666C136.764 13.666 136.654 13.404 136.594 13.083C136.534 12.762 136.419 12.5 136.339 12.5C136.258 12.5 136.143 12.275 136.083 12C136.023 11.725 135.91 11.5 135.833 11.5C135.756 11.5 135.643 11.275 135.583 11C135.523 10.725 135.405 10.5 135.322 10.5C135.238 10.5 135.122 10.2 135.064 9.833C135.005 9.466 134.898 9.166 134.825 9.166C134.752 9.166 134.643 8.941 134.583 8.666C134.523 8.391 134.41 8.166 134.333 8.166C134.256 8.166 134.143 7.941 134.083 7.666C134.023 7.391 133.91 7.166 133.833 7.166C133.756 7.166 133.643 6.941 133.583 6.666C133.523 6.391 133.412 6.166 133.338 6.166C133.264 6.166 133.154 5.904 133.094 5.583C133.034 5.262 132.919 5 132.839 5C132.758 5 132.643 4.775 132.583 4.5C132.523 4.225 132.41 4 132.333 4C132.256 4 132.143 3.775 132.083 3.5C132.023 3.225 131.914 3 131.841 3C131.768 3 131.661 2.7 131.602 2.333C131.544 1.966 131.43 1.666 131.35 1.666C131.271 1.666 131.166 1.516 131.118 1.333C130.96 0.729 129.723 0.863 129.583 1.5ZM0 14.916V28.666H1.583H3.166V22.264C3.166 18.742 3.232 15.836 3.312 15.805C3.443 15.756 3.979 15.306 5.71 13.797C6.239 13.335 6.666 13.398 6.666 13.937C6.666 14.063 6.741 14.166 6.833 14.166C6.925 14.166 7 14.244 7 14.34C7 14.537 7.685 15.554 7.875 15.639C7.943 15.669 8 15.766 8 15.854C8 16.014 8.652 17.009 8.861 17.168C8.923 17.215 9.023 17.453 9.085 17.698C9.146 17.942 9.302 18.183 9.431 18.232C9.561 18.282 9.666 18.437 9.666 18.578C9.666 18.718 9.74 18.833 9.83 18.833C9.92 18.833 10.039 19.015 10.095 19.238C10.151 19.46 10.302 19.683 10.431 19.732C10.561 19.782 10.666 19.937 10.666 20.078C10.666 20.218 10.74 20.333 10.83 20.333C10.92 20.333 11.04 20.521 11.098 20.75C11.155 20.979 11.269 21.166 11.351 21.166C11.433 21.166 11.5 21.281 11.5 21.422C11.5 21.562 11.605 21.717 11.735 21.767C11.864 21.817 12.015 22.039 12.071 22.262C12.127 22.484 12.246 22.666 12.336 22.666C12.426 22.666 12.5 22.781 12.5 22.922C12.5 23.062 12.605 23.217 12.735 23.267C12.864 23.317 13.015 23.539 13.071 23.762C13.127 23.984 13.24 24.166 13.323 24.166C13.406 24.166 13.521 24.385 13.58 24.652C13.639 24.92 13.795 25.18 13.927 25.231C14.058 25.281 14.166 25.437 14.166 25.578C14.166 25.718 14.24 25.833 14.33 25.833C14.42 25.833 14.539 26.015 14.595 26.238C14.651 26.46 14.802 26.683 14.931 26.732C15.061 26.782 15.166 26.937 15.166 27.078C15.166 27.218 15.233 27.333 15.315 27.333C15.397 27.333 15.511 27.521 15.568 27.75C15.626 27.979 15.746 28.166 15.836 28.166C15.926 28.166 16 28.279 16 28.416C16 28.625 16.342 28.666 18.083 28.666H20.166V28.244C20.166 28.012 20.058 27.781 19.927 27.731C19.795 27.68 19.639 27.42 19.58 27.152C19.521 26.885 19.421 26.666 19.358 26.666C19.295 26.666 19.058 26.329 18.833 25.916C18.608 25.504 18.374 25.166 18.313 25.166C18.252 25.166 18.155 24.979 18.098 24.75C18.04 24.521 17.92 24.333 17.83 24.333C17.74 24.333 17.666 24.232 17.666 24.109C17.666 23.985 17.516 23.711 17.333 23.5C17.15 23.288 17 23.014 17 22.891C17 22.767 16.925 22.666 16.833 22.666C16.741 22.666 16.666 22.588 16.666 22.493C16.666 22.329 16.034 21.346 15.814 21.166C15.757 21.12 15.654 20.901 15.585 20.679C15.516 20.457 15.392 20.195 15.31 20.096C14.622 19.269 14.5 19.088 14.5 18.891C14.5 18.767 14.425 18.666 14.333 18.666C14.241 18.666 14.166 18.551 14.166 18.411C14.166 18.271 14.058 18.114 13.927 18.064C13.795 18.013 13.639 17.753 13.58 17.486C13.521 17.218 13.406 17 13.323 17C13.24 17 13.127 16.818 13.071 16.595C13.015 16.373 12.864 16.15 12.735 16.1C12.605 16.051 12.5 15.895 12.5 15.755C12.5 15.615 12.433 15.5 12.351 15.5C12.269 15.5 12.155 15.312 12.098 15.083C12.04 14.854 11.92 14.666 11.83 14.666C11.74 14.666 11.666 14.551 11.666 14.411C11.666 14.271 11.558 14.114 11.427 14.064C11.295 14.013 11.139 13.753 11.08 13.486C11.021 13.218 10.906 13 10.823 13C10.74 13 10.626 12.812 10.568 12.583C10.511 12.354 10.397 12.166 10.315 12.166C10.233 12.166 10.166 12.058 10.166 11.925C10.166 11.792 10.064 11.623 9.938 11.55C9.578 11.339 9.457 10.731 9.725 10.476C9.856 10.351 10.573 9.687 11.319 9C12.066 8.312 13.322 7.131 14.11 6.375C14.898 5.618 15.591 5 15.65 5C15.709 5 16.394 4.377 17.173 3.616C17.951 2.855 18.718 2.182 18.877 2.121C19.046 2.056 19.166 1.835 19.166 1.588V1.166H16.897H14.627L13.98 1.833C13.625 2.2 13.262 2.5 13.176 2.5C13.089 2.5 12.649 2.875 12.198 3.333C11.747 3.791 11.322 4.166 11.254 4.166C11.186 4.166 10.724 4.579 10.228 5.083C9.732 5.587 9.259 6 9.176 6C9.094 6 8.576 6.45 8.026 7C7.476 7.55 6.973 8 6.907 8C6.842 8 6.419 8.375 5.968 8.833C5.517 9.291 5.076 9.666 4.988 9.666C4.9 9.666 4.504 10.004 4.109 10.416C3.714 10.829 3.34 11.166 3.278 11.166C3.217 11.166 3.166 8.916 3.166 6.166V1.166H1.583H0V14.916ZM32.666 7.311C32.666 7.391 32.216 7.508 31.666 7.57C31.116 7.632 30.666 7.748 30.666 7.828C30.666 7.908 30.441 8.023 30.166 8.083C29.891 8.143 29.666 8.254 29.666 8.328C29.666 8.403 29.472 8.512 29.235 8.572C28.998 8.631 28.634 8.864 28.425 9.09C28.216 9.315 27.987 9.5 27.917 9.5C27.724 9.5 26.249 11.04 26.121 11.375C26.06 11.535 25.941 11.666 25.856 11.666C25.772 11.666 25.655 11.854 25.598 12.083C25.54 12.312 25.426 12.5 25.343 12.5C25.26 12.5 25.143 12.725 25.083 13C25.023 13.275 24.911 13.5 24.834 13.5C24.758 13.5 24.642 13.818 24.577 14.208C24.512 14.598 24.374 14.97 24.271 15.035C24.01 15.201 24.01 20.966 24.271 21.131C24.374 21.196 24.511 21.493 24.575 21.791C24.64 22.089 24.756 22.333 24.833 22.333C24.91 22.333 25.023 22.558 25.083 22.833C25.143 23.108 25.254 23.333 25.328 23.333C25.403 23.333 25.513 23.53 25.573 23.771C25.634 24.012 25.905 24.43 26.175 24.701C26.445 24.971 26.666 25.261 26.666 25.346C26.666 25.545 27.287 26.166 27.487 26.166C27.571 26.166 27.862 26.387 28.132 26.658C28.402 26.928 28.815 27.197 29.05 27.256C29.284 27.315 29.516 27.469 29.566 27.598C29.615 27.727 29.846 27.833 30.078 27.833C30.31 27.833 30.5 27.905 30.5 27.994C30.5 28.082 30.875 28.205 31.333 28.265C31.791 28.326 32.166 28.441 32.166 28.521C32.166 28.601 33.291 28.666 34.666 28.666C36.041 28.666 37.166 28.6 37.166 28.519C37.166 28.438 37.579 28.32 38.083 28.257C38.587 28.194 39 28.079 39 28.001C39 27.923 39.225 27.81 39.5 27.75C39.775 27.689 40 27.579 40 27.504C40 27.43 40.183 27.323 40.407 27.267C40.88 27.148 43.425 24.664 43.582 24.168C43.641 23.984 43.753 23.833 43.831 23.833C43.909 23.833 44.023 23.608 44.083 23.333C44.143 23.058 44.256 22.833 44.333 22.833C44.41 22.833 44.526 22.589 44.591 22.291C44.655 21.993 44.775 21.707 44.857 21.654C44.94 21.602 45.053 21.058 45.111 20.446C45.168 19.834 45.279 19.333 45.357 19.333C45.436 19.333 45.5 18.695 45.5 17.916C45.5 17.137 45.434 16.5 45.355 16.5C45.275 16.5 45.158 15.975 45.094 15.333C45.031 14.691 44.912 14.166 44.83 14.166C44.748 14.166 44.632 13.904 44.572 13.583C44.512 13.262 44.404 13 44.333 13C44.261 13 44.155 12.812 44.098 12.583C44.04 12.354 43.92 12.166 43.83 12.166C43.74 12.166 43.666 12.051 43.666 11.911C43.666 11.771 43.557 11.614 43.423 11.562C43.289 11.511 43.131 11.319 43.073 11.135C42.956 10.766 41.716 9.5 41.472 9.5C41.387 9.5 41.148 9.317 40.942 9.095C40.735 8.872 40.364 8.639 40.116 8.576C39.869 8.514 39.666 8.405 39.666 8.333C39.666 8.261 39.461 8.151 39.21 8.088C38.959 8.025 38.708 7.9 38.652 7.81C38.597 7.721 38.128 7.604 37.609 7.55C37.091 7.497 36.666 7.389 36.666 7.31C36.666 7.231 35.766 7.166 34.666 7.166C33.566 7.166 32.666 7.232 32.666 7.311ZM72.666 7.311C72.666 7.391 72.216 7.508 71.666 7.57C71.116 7.632 70.666 7.746 70.666 7.823C70.666 7.9 70.404 8.012 70.083 8.072C69.762 8.132 69.5 8.245 69.5 8.322C69.5 8.4 69.312 8.511 69.083 8.568C68.854 8.626 68.666 8.746 68.666 8.836C68.666 8.926 68.582 9 68.479 9C68.241 9 66.269 10.986 66.121 11.375C66.06 11.535 65.941 11.666 65.856 11.666C65.772 11.666 65.655 11.854 65.598 12.083C65.54 12.312 65.426 12.5 65.343 12.5C65.26 12.5 65.143 12.725 65.083 13C65.023 13.275 64.911 13.5 64.834 13.5C64.758 13.5 64.642 13.818 64.577 14.208C64.512 14.598 64.374 14.97 64.271 15.035C64.01 15.201 64.01 20.966 64.271 21.131C64.374 21.196 64.511 21.493 64.575 21.791C64.64 22.089 64.762 22.333 64.846 22.333C64.931 22.333 65 22.523 65 22.755C65 22.987 65.105 23.217 65.235 23.267C65.364 23.317 65.519 23.554 65.579 23.795C65.64 24.036 65.872 24.402 66.095 24.608C66.317 24.815 66.5 25.056 66.5 25.145C66.5 25.388 67.993 26.833 68.245 26.833C68.365 26.833 68.507 26.945 68.56 27.083C68.613 27.22 68.771 27.333 68.911 27.333C69.051 27.333 69.166 27.402 69.166 27.486C69.166 27.571 69.391 27.689 69.666 27.75C69.941 27.81 70.166 27.923 70.166 28.001C70.166 28.079 70.579 28.194 71.083 28.257C71.587 28.32 72 28.438 72 28.519C72 28.6 73.237 28.666 74.75 28.666C76.262 28.666 77.5 28.601 77.5 28.522C77.5 28.442 77.81 28.335 78.19 28.284C78.57 28.233 78.926 28.12 78.982 28.033C79.038 27.946 79.327 27.822 79.625 27.757C79.923 27.693 80.166 27.572 80.166 27.49C80.166 27.407 80.348 27.294 80.571 27.238C80.793 27.182 81.016 27.031 81.066 26.901C81.115 26.772 81.237 26.666 81.337 26.666C81.579 26.666 83.166 25.095 83.166 24.855C83.166 24.751 83.24 24.666 83.33 24.666C83.42 24.666 83.539 24.484 83.595 24.262C83.651 24.039 83.802 23.817 83.931 23.767C84.061 23.717 84.166 23.562 84.166 23.422C84.166 23.281 84.241 23.166 84.333 23.166C84.996 23.166 84.44 22.186 83.497 21.692C82.5 21.169 81.666 21.009 81.666 21.34C81.666 21.561 81.029 22.472 80.541 22.95C80.335 23.152 80.166 23.39 80.166 23.478C80.166 23.567 79.904 23.801 79.583 24C79.262 24.198 79 24.423 79 24.5C79 24.577 78.775 24.689 78.5 24.75C78.225 24.81 78 24.925 78 25.005C78 25.086 77.736 25.201 77.414 25.261C77.093 25.321 76.788 25.437 76.738 25.519C76.688 25.6 76.426 25.666 76.156 25.666C75.887 25.666 75.666 25.723 75.666 25.791C75.666 25.86 75.104 25.916 74.416 25.916C73.729 25.916 73.166 25.86 73.166 25.791C73.166 25.723 72.941 25.666 72.666 25.666C72.391 25.666 72.166 25.599 72.166 25.518C72.166 25.436 71.966 25.319 71.721 25.257C70.946 25.063 68.666 23.258 68.666 22.839C68.666 22.757 68.573 22.588 68.458 22.462C68.049 22.015 67.652 21.105 67.554 20.391C67.499 19.993 67.39 19.666 67.31 19.666C67.231 19.666 67.166 19.366 67.166 19V18.333H76.189H85.212L85.093 16.71C85.027 15.817 84.914 15.048 84.84 15.001C84.767 14.955 84.654 14.598 84.589 14.208C84.524 13.818 84.408 13.5 84.332 13.5C84.255 13.5 84.143 13.275 84.083 13C84.023 12.725 83.912 12.5 83.838 12.5C83.763 12.5 83.655 12.312 83.598 12.083C83.54 11.854 83.42 11.666 83.33 11.666C83.24 11.666 83.166 11.584 83.166 11.482C83.166 11.243 80.923 9 80.684 9C80.582 9 80.5 8.926 80.5 8.836C80.5 8.746 80.312 8.626 80.083 8.568C79.854 8.511 79.666 8.4 79.666 8.322C79.666 8.245 79.404 8.132 79.083 8.072C78.762 8.012 78.5 7.9 78.5 7.823C78.5 7.746 78.05 7.632 77.5 7.57C76.95 7.508 76.5 7.391 76.5 7.311C76.5 7.232 75.637 7.166 74.583 7.166C73.529 7.166 72.666 7.232 72.666 7.311ZM99.5 7.31C99.5 7.389 99.075 7.497 98.557 7.55C98.038 7.604 97.569 7.721 97.514 7.81C97.458 7.9 97.207 8.025 96.956 8.088C96.705 8.151 96.5 8.261 96.5 8.333C96.5 8.405 96.297 8.514 96.05 8.576C95.802 8.639 95.431 8.872 95.224 9.095C95.018 9.317 94.776 9.5 94.687 9.5C94.444 9.5 93 10.993 93 11.245C93 11.365 92.887 11.507 92.75 11.56C92.612 11.613 92.5 11.771 92.5 11.911C92.5 12.051 92.426 12.166 92.336 12.166C92.246 12.166 92.126 12.354 92.068 12.583C92.011 12.812 91.9 13 91.822 13C91.745 13 91.632 13.262 91.572 13.583C91.512 13.904 91.4 14.166 91.323 14.166C91.246 14.166 91.132 14.616 91.07 15.166C91.008 15.716 90.891 16.166 90.811 16.166C90.732 16.166 90.666 16.954 90.666 17.916C90.666 18.879 90.731 19.666 90.81 19.666C90.889 19.666 90.995 20.127 91.046 20.69C91.097 21.253 91.214 21.76 91.306 21.816C91.398 21.873 91.525 22.125 91.588 22.376C91.651 22.628 91.763 22.833 91.838 22.833C91.912 22.833 92.023 23.058 92.083 23.333C92.143 23.608 92.262 23.833 92.346 23.833C92.431 23.833 92.5 23.94 92.5 24.07C92.5 24.201 92.725 24.532 93 24.807C93.275 25.082 93.5 25.371 93.5 25.45C93.5 25.617 94.112 26.166 94.298 26.166C94.368 26.166 94.614 26.381 94.845 26.644C95.075 26.907 95.445 27.179 95.666 27.249C95.887 27.32 96.17 27.48 96.295 27.605C96.421 27.73 96.668 27.833 96.845 27.833C97.022 27.833 97.166 27.903 97.166 27.988C97.166 28.073 97.579 28.194 98.083 28.257C98.587 28.32 99 28.438 99 28.519C99 28.6 99.937 28.666 101.083 28.666C102.229 28.666 103.166 28.602 103.166 28.523C103.166 28.444 103.591 28.336 104.109 28.282C104.628 28.229 105.097 28.112 105.152 28.022C105.208 27.933 105.459 27.808 105.71 27.745C105.961 27.682 106.166 27.571 106.166 27.5C106.166 27.428 106.354 27.322 106.583 27.265C106.812 27.207 107 27.086 107 26.996C107 26.907 107.088 26.833 107.195 26.833C107.302 26.833 107.714 26.496 108.109 26.083C109.042 25.109 109 25.061 109 27.083V28.833H110.595H112.19L112.136 21.993C112.099 17.152 112.028 15.119 111.895 15.035C111.792 14.97 111.654 14.598 111.589 14.208C111.524 13.818 111.408 13.5 111.332 13.5C111.255 13.5 111.143 13.275 111.083 13C111.023 12.725 110.906 12.5 110.823 12.5C110.74 12.5 110.626 12.312 110.568 12.083C110.511 11.854 110.394 11.666 110.31 11.666C110.225 11.666 110.106 11.535 110.045 11.375C109.917 11.04 108.442 9.5 108.249 9.5C108.179 9.5 107.95 9.315 107.741 9.09C107.532 8.864 107.168 8.631 106.931 8.572C106.694 8.512 106.5 8.403 106.5 8.328C106.5 8.254 106.275 8.143 106 8.083C105.725 8.023 105.5 7.908 105.5 7.828C105.5 7.748 105.05 7.632 104.5 7.57C103.95 7.508 103.5 7.391 103.5 7.311C103.5 7.232 102.6 7.166 101.5 7.166C100.4 7.166 99.5 7.231 99.5 7.31ZM157.666 7.314C157.666 7.395 157.179 7.513 156.583 7.577C155.987 7.641 155.5 7.761 155.5 7.844C155.5 7.928 155.2 8.044 154.833 8.102C154.466 8.161 154.166 8.274 154.166 8.354C154.166 8.434 154.051 8.5 153.911 8.5C153.771 8.5 153.615 8.605 153.566 8.735C153.516 8.864 153.293 9.015 153.071 9.071C152.848 9.127 152.666 9.246 152.666 9.336C152.666 9.426 152.583 9.5 152.482 9.5C152.241 9.5 150.5 11.241 150.5 11.482C150.5 11.583 150.426 11.666 150.336 11.666C150.246 11.666 150.127 11.848 150.071 12.071C150.015 12.293 149.864 12.516 149.735 12.566C149.605 12.615 149.5 12.771 149.5 12.911C149.5 13.051 149.428 13.166 149.341 13.166C149.253 13.166 149.13 13.448 149.067 13.791C149.003 14.135 148.881 14.462 148.795 14.518C148.709 14.574 148.597 15.08 148.546 15.643C148.495 16.206 148.389 16.666 148.31 16.666C148.231 16.666 148.166 17.341 148.166 18.166C148.166 18.991 148.231 19.666 148.31 19.666C148.389 19.666 148.495 20.127 148.546 20.69C148.597 21.253 148.714 21.76 148.806 21.816C148.898 21.873 149.025 22.125 149.088 22.376C149.151 22.628 149.263 22.833 149.338 22.833C149.412 22.833 149.523 23.058 149.583 23.333C149.643 23.608 149.757 23.833 149.835 23.833C149.913 23.833 150.025 23.984 150.084 24.169C150.222 24.606 152.227 26.61 152.663 26.749C152.848 26.807 153 26.919 153 26.998C153 27.076 153.225 27.189 153.5 27.25C153.775 27.31 154 27.423 154 27.5C154 27.577 154.225 27.689 154.5 27.75C154.775 27.81 155 27.926 155 28.007C155 28.088 155.375 28.205 155.833 28.265C156.291 28.326 156.666 28.441 156.666 28.521C156.666 28.601 157.979 28.666 159.583 28.666C161.187 28.666 162.5 28.601 162.5 28.521C162.5 28.441 162.875 28.326 163.333 28.265C163.791 28.205 164.166 28.092 164.166 28.015C164.166 27.938 164.466 27.828 164.833 27.769C165.2 27.71 165.5 27.588 165.5 27.498C165.5 27.407 165.615 27.333 165.755 27.333C165.895 27.333 166.051 27.227 166.1 27.098C166.15 26.969 166.373 26.817 166.595 26.762C166.818 26.706 167 26.586 167 26.496C167 26.407 167.083 26.333 167.186 26.333C167.386 26.333 168.666 25.115 168.666 24.924C168.666 24.861 168.779 24.697 168.916 24.559C169.391 24.084 169.199 23.727 168.076 22.995C166.983 22.283 166.166 22.246 166.166 22.907C166.166 23.121 165.572 23.666 165.339 23.666C165.253 23.666 165.123 23.76 165.05 23.875C164.873 24.151 163.893 24.833 163.673 24.833C163.578 24.833 163.5 24.908 163.5 25C163.5 25.091 163.387 25.166 163.25 25.166C163.112 25.166 163 25.234 163 25.317C163 25.4 162.858 25.431 162.685 25.386C162.512 25.341 162.32 25.385 162.259 25.485C162.197 25.585 161.889 25.666 161.573 25.666C161.258 25.666 161 25.723 160.999 25.791C160.999 25.86 160.362 25.916 159.583 25.916C158.803 25.916 158.166 25.86 158.166 25.791C158.166 25.723 157.941 25.666 157.666 25.666C157.391 25.666 157.166 25.591 157.166 25.5C157.166 25.408 157.043 25.333 156.893 25.333C156.573 25.333 155.182 24.677 154.863 24.375C154.742 24.26 154.575 24.166 154.493 24.166C154.338 24.166 153.166 23.052 153.166 22.904C153.166 22.8 152.458 21.782 152.305 21.665C152.243 21.618 152.139 21.355 152.073 21.081C152.007 20.807 151.87 20.478 151.768 20.349C151.445 19.94 151.531 15.848 151.876 15.25C152.035 14.975 152.165 14.656 152.165 14.541C152.166 14.427 152.236 14.333 152.322 14.333C152.407 14.333 152.53 14.164 152.594 13.958C152.734 13.505 154.496 11.675 154.797 11.67C154.914 11.668 155.052 11.558 155.102 11.427C155.153 11.295 155.413 11.139 155.68 11.08C155.948 11.021 156.166 10.919 156.166 10.853C156.166 10.786 156.56 10.633 157.041 10.511C158.111 10.242 161.5 10.082 161.5 10.301C161.5 10.387 161.875 10.506 162.333 10.567C162.791 10.628 163.166 10.75 163.166 10.839C163.166 10.927 163.261 11 163.377 11C163.914 11 166.5 13.092 166.5 13.526C166.5 13.722 167.495 13.59 167.658 13.372C167.78 13.21 168.326 12.871 168.791 12.67C169.227 12.482 169.313 11.712 168.916 11.56C168.779 11.507 168.666 11.368 168.666 11.25C168.666 10.958 166.937 9.222 166.511 9.086C166.321 9.026 166.166 8.913 166.166 8.835C166.166 8.757 165.941 8.643 165.666 8.583C165.391 8.523 165.166 8.412 165.166 8.338C165.166 8.264 164.904 8.154 164.583 8.094C164.262 8.034 164 7.918 164 7.836C164 7.754 163.475 7.635 162.833 7.572C162.191 7.508 161.666 7.391 161.666 7.311C161.666 7.232 160.766 7.166 159.666 7.166C158.566 7.166 157.666 7.233 157.666 7.314ZM183.666 7.311C183.666 7.391 183.216 7.508 182.666 7.57C182.116 7.632 181.666 7.748 181.666 7.828C181.666 7.908 181.441 8.023 181.166 8.083C180.891 8.143 180.666 8.254 180.666 8.328C180.666 8.403 180.472 8.512 180.235 8.572C179.998 8.631 179.634 8.864 179.425 9.09C179.216 9.315 178.987 9.5 178.917 9.5C178.724 9.5 177.249 11.04 177.121 11.375C177.06 11.535 176.941 11.666 176.856 11.666C176.772 11.666 176.655 11.854 176.598 12.083C176.54 12.312 176.426 12.5 176.343 12.5C176.26 12.5 176.143 12.725 176.083 13C176.023 13.275 175.911 13.5 175.834 13.5C175.758 13.5 175.642 13.818 175.577 14.208C175.512 14.598 175.374 14.97 175.271 15.035C175.01 15.201 175.01 20.966 175.271 21.131C175.374 21.196 175.511 21.493 175.575 21.791C175.64 22.089 175.756 22.333 175.833 22.333C175.91 22.333 176.023 22.558 176.083 22.833C176.143 23.108 176.254 23.333 176.328 23.333C176.403 23.333 176.513 23.53 176.573 23.771C176.634 24.012 176.905 24.43 177.175 24.701C177.445 24.971 177.666 25.261 177.666 25.346C177.666 25.545 178.287 26.166 178.487 26.166C178.571 26.166 178.862 26.387 179.132 26.658C179.402 26.928 179.815 27.197 180.05 27.256C180.284 27.315 180.516 27.469 180.566 27.598C180.615 27.727 180.846 27.833 181.078 27.833C181.31 27.833 181.5 27.905 181.5 27.994C181.5 28.082 181.875 28.205 182.333 28.265C182.791 28.326 183.166 28.441 183.166 28.521C183.166 28.601 184.141 28.666 185.333 28.666C186.525 28.666 187.5 28.601 187.5 28.521C187.5 28.441 187.95 28.325 188.5 28.263C189.05 28.201 189.5 28.084 189.5 28.005C189.5 27.925 189.725 27.81 190 27.75C190.275 27.689 190.5 27.571 190.5 27.486C190.5 27.402 190.615 27.333 190.755 27.333C190.895 27.333 191.053 27.22 191.106 27.083C191.159 26.945 191.301 26.833 191.421 26.833C191.541 26.833 191.983 26.49 192.403 26.07L193.166 25.307V27.07V28.833H194.833H196.5V22.5C196.5 19.015 196.434 16.166 196.355 16.166C196.275 16.166 196.158 15.716 196.096 15.166C196.034 14.616 195.92 14.166 195.843 14.166C195.766 14.166 195.654 13.904 195.594 13.583C195.534 13.262 195.421 13 195.344 13C195.266 13 195.155 12.812 195.098 12.583C195.04 12.354 194.92 12.166 194.83 12.166C194.74 12.166 194.666 12.051 194.666 11.911C194.666 11.771 194.554 11.613 194.416 11.56C194.279 11.507 194.166 11.365 194.166 11.245C194.166 10.993 192.722 9.5 192.479 9.5C192.39 9.5 192.148 9.317 191.942 9.095C191.735 8.872 191.364 8.639 191.116 8.576C190.869 8.514 190.666 8.405 190.666 8.333C190.666 8.261 190.461 8.151 190.21 8.088C189.959 8.025 189.708 7.9 189.652 7.81C189.597 7.721 189.128 7.604 188.609 7.55C188.091 7.497 187.666 7.389 187.666 7.31C187.666 7.231 186.766 7.166 185.666 7.166C184.566 7.166 183.666 7.232 183.666 7.311ZM239 7.31C239 7.389 238.575 7.497 238.057 7.55C237.538 7.604 237.07 7.716 237.015 7.8C236.961 7.883 236.635 8.003 236.291 8.067C235.948 8.13 235.666 8.253 235.666 8.341C235.666 8.428 235.551 8.5 235.411 8.5C235.271 8.5 235.113 8.612 235.06 8.75C235.007 8.887 234.866 9 234.745 9C234.46 9 232.5 10.96 232.5 11.245C232.5 11.366 232.387 11.507 232.25 11.56C232.112 11.613 232 11.771 232 11.911C232 12.051 231.926 12.166 231.836 12.166C231.746 12.166 231.626 12.354 231.568 12.583C231.511 12.812 231.4 13 231.322 13C231.245 13 231.132 13.262 231.072 13.583C231.012 13.904 230.9 14.166 230.823 14.166C230.746 14.166 230.632 14.616 230.57 15.166C230.508 15.716 230.391 16.166 230.311 16.166C230.232 16.166 230.166 16.954 230.166 17.916C230.166 18.879 230.231 19.666 230.31 19.666C230.389 19.666 230.496 20.133 230.547 20.704C230.599 21.275 230.722 21.768 230.821 21.801C230.919 21.834 231.046 22.15 231.103 22.503C231.159 22.857 231.309 23.186 231.436 23.234C231.563 23.283 231.666 23.437 231.666 23.578C231.666 23.718 231.741 23.833 231.833 23.833C231.925 23.833 232 23.946 232 24.085C232 24.223 232.15 24.465 232.333 24.622C232.516 24.779 232.666 24.97 232.666 25.046C232.666 25.258 234.262 26.833 234.477 26.833C234.581 26.833 234.666 26.907 234.666 26.996C234.666 27.086 234.854 27.207 235.083 27.265C235.312 27.322 235.5 27.43 235.5 27.504C235.5 27.579 235.725 27.689 236 27.75C236.275 27.81 236.5 27.926 236.5 28.007C236.5 28.088 236.875 28.205 237.333 28.265C237.791 28.326 238.166 28.441 238.166 28.521C238.166 28.601 239.404 28.666 240.916 28.666C242.429 28.666 243.666 28.601 243.666 28.522C243.666 28.442 243.977 28.335 244.357 28.284C244.737 28.233 245.093 28.122 245.149 28.036C245.204 27.951 245.524 27.831 245.859 27.769C246.193 27.708 246.51 27.547 246.562 27.412C246.613 27.277 246.771 27.166 246.911 27.166C247.051 27.166 247.166 27.096 247.166 27.011C247.166 26.925 247.319 26.807 247.504 26.748C247.943 26.609 249.442 25.109 249.581 24.671C249.64 24.485 249.759 24.333 249.844 24.333C249.93 24.333 250 24.224 250 24.091C250 23.958 250.124 23.78 250.275 23.695C250.954 23.315 250.663 22.187 249.75 21.661C248.849 21.141 248 21.014 248 21.399C248 21.526 247.887 21.674 247.75 21.727C247.612 21.779 247.5 21.904 247.5 22.003C247.5 22.103 247.275 22.424 247 22.717C246.726 23.01 246.501 23.327 246.5 23.422C246.5 23.517 246.277 23.726 246.006 23.886C245.734 24.047 245.415 24.269 245.297 24.381C244.983 24.678 243.59 25.333 243.273 25.333C243.123 25.333 243 25.408 243 25.5C243 25.591 242.775 25.666 242.5 25.666C242.225 25.666 242 25.723 242 25.791C242 25.86 241.437 25.916 240.75 25.916C240.062 25.916 239.5 25.86 239.5 25.791C239.5 25.723 239.331 25.666 239.125 25.666C238.193 25.667 235 23.499 235 22.866C235 22.756 234.938 22.666 234.863 22.666C234.688 22.666 234 21.299 234 20.954C234 20.811 233.928 20.669 233.841 20.639C233.754 20.608 233.631 20.077 233.568 19.458L233.454 18.333H242.477H251.5V17.416C251.5 16.912 251.436 16.5 251.357 16.5C251.279 16.5 251.168 15.999 251.111 15.387C251.053 14.775 250.94 14.231 250.857 14.178C250.775 14.126 250.655 13.839 250.591 13.541C250.526 13.243 250.41 13 250.333 13C250.256 13 250.143 12.775 250.083 12.5C250.023 12.225 249.909 12 249.831 12C249.753 12 249.64 11.846 249.58 11.658C249.445 11.232 247.209 9 246.917 9C246.799 9 246.659 8.887 246.606 8.75C246.553 8.612 246.395 8.5 246.255 8.5C246.115 8.5 246 8.428 246 8.341C246 8.253 245.718 8.13 245.375 8.067C245.031 8.003 244.705 7.883 244.651 7.8C244.596 7.716 244.128 7.604 243.609 7.55C243.091 7.497 242.666 7.389 242.666 7.31C242.666 7.231 241.841 7.166 240.833 7.166C239.825 7.166 239 7.231 239 7.31ZM57.666 7.814C57.666 7.896 57.404 8.012 57.083 8.072C56.762 8.132 56.5 8.252 56.5 8.337C56.5 8.423 56.312 8.54 56.083 8.598C55.854 8.655 55.666 8.769 55.666 8.851C55.666 8.933 55.584 9 55.482 9C55.243 9 53 11.243 53 11.482C53 11.584 52.931 11.666 52.846 11.666C52.762 11.666 52.643 11.891 52.583 12.166C52.523 12.441 52.41 12.666 52.333 12.666C52.256 12.666 52.143 12.891 52.083 13.166C52.023 13.441 51.908 13.666 51.827 13.666C51.747 13.666 51.63 13.948 51.567 14.291C51.503 14.635 51.369 14.97 51.267 15.035C51.139 15.118 51.067 17.211 51.031 21.91L50.979 28.666H52.573H54.166V22.75C54.166 18.916 54.225 16.833 54.333 16.833C54.425 16.833 54.5 16.552 54.5 16.208C54.501 15.466 55.392 13.639 56.155 12.815C56.442 12.504 56.731 12.192 56.797 12.121C57.617 11.238 57.931 11.091 59.137 11.027C60.23 10.969 60.376 10.921 60.539 10.564C60.638 10.345 60.777 10.166 60.847 10.166C60.916 10.166 61.021 9.948 61.08 9.68C61.139 9.413 61.295 9.153 61.427 9.102C61.945 8.903 61.707 8.189 61.083 8.072C60.762 8.012 60.5 7.896 60.5 7.814C60.5 7.733 59.862 7.666 59.083 7.666C58.304 7.666 57.666 7.733 57.666 7.814ZM264.666 7.812C264.666 7.891 264.291 8.006 263.833 8.067C263.375 8.128 263 8.242 263 8.321C263 8.399 262.812 8.511 262.583 8.568C262.354 8.626 262.166 8.746 262.166 8.836C262.166 8.926 262.082 9 261.979 9C261.739 9 259.666 11.086 259.666 11.328C259.666 11.428 259.558 11.552 259.427 11.602C259.295 11.653 259.139 11.913 259.08 12.18C259.021 12.448 258.911 12.666 258.835 12.666C258.76 12.666 258.644 13.06 258.578 13.541C258.513 14.023 258.375 14.47 258.271 14.535C258.138 14.619 258.067 16.692 258.027 21.66L257.971 28.666H259.472H260.973L261.028 21.993C261.066 17.398 261.14 15.284 261.266 15.202C261.366 15.136 261.495 14.784 261.553 14.418C261.611 14.052 261.735 13.727 261.829 13.695C261.923 13.664 262 13.567 262 13.479C262 13.134 263.205 11.666 263.488 11.666C263.573 11.666 263.742 11.568 263.863 11.448C264.432 10.884 267.5 10.365 267.5 10.833C267.5 10.925 267.632 11 267.794 11C268.44 11 270.5 12.511 270.5 12.985C270.5 13.062 270.607 13.215 270.739 13.324C270.871 13.433 271.03 13.761 271.093 14.053C271.156 14.344 271.293 14.636 271.396 14.702C271.528 14.786 271.599 16.855 271.639 21.743L271.695 28.666H273.181H274.666V23.25C274.666 20.271 274.732 17.833 274.811 17.833C274.891 17.833 275.009 17.233 275.073 16.5C275.137 15.766 275.251 15.166 275.326 15.166C275.401 15.166 275.513 14.895 275.576 14.564C275.638 14.233 275.777 13.855 275.886 13.724C276.54 12.934 277.767 11.816 278.182 11.633C278.448 11.515 278.666 11.362 278.666 11.294C278.666 11.226 278.968 11.122 279.337 11.063C279.705 11.004 280.047 10.891 280.097 10.811C280.214 10.621 282 10.622 282 10.812C282 10.892 282.221 11.002 282.491 11.056C283.233 11.205 284.664 12.502 284.666 13.027C284.666 13.18 284.76 13.336 284.875 13.375C285.036 13.428 285.094 15.15 285.133 21.055L285.182 28.666H286.841H288.5V21.666C288.5 17.816 288.436 14.666 288.357 14.666C288.279 14.666 288.17 14.129 288.115 13.472C288.06 12.816 287.946 12.235 287.861 12.181C287.777 12.127 287.655 11.839 287.591 11.541C287.526 11.243 287.409 11 287.331 11C287.253 11 287.14 10.846 287.08 10.658C286.94 10.217 285.949 9.226 285.508 9.086C285.32 9.026 285.166 8.913 285.166 8.835C285.166 8.757 284.941 8.643 284.666 8.583C284.391 8.523 284.166 8.407 284.166 8.325C284.166 8.244 283.791 8.128 283.333 8.067C282.875 8.006 282.5 7.891 282.5 7.812C282.5 7.732 281.825 7.666 281 7.666C280.175 7.666 279.5 7.73 279.5 7.809C279.5 7.887 278.999 7.998 278.387 8.055C277.775 8.113 277.23 8.23 277.177 8.316C277.123 8.403 276.88 8.523 276.635 8.585C276.391 8.646 276.15 8.802 276.1 8.931C276.051 9.061 275.929 9.166 275.829 9.166C275.587 9.166 274 10.737 274 10.977C274 11.081 273.926 11.166 273.836 11.166C273.746 11.166 273.626 11.354 273.568 11.583C273.427 12.145 273.217 12.108 273.083 11.5C273.023 11.225 272.904 11 272.82 11C272.735 11 272.666 10.886 272.666 10.748C272.666 10.61 272.516 10.368 272.333 10.211C272.15 10.054 272 9.83 272 9.713C272 9.595 271.915 9.5 271.81 9.5C271.706 9.5 271.45 9.315 271.241 9.09C271.032 8.864 270.668 8.631 270.431 8.572C270.194 8.512 270 8.402 270 8.327C270 8.252 269.587 8.139 269.083 8.076C268.579 8.013 268.166 7.895 268.166 7.814C268.166 7.733 267.379 7.666 266.416 7.666C265.454 7.666 264.666 7.732 264.666 7.812ZM293.584 8.171C293.645 8.449 293.913 9.105 294.179 9.63C294.445 10.154 294.663 10.714 294.664 10.875C294.665 11.035 294.735 11.166 294.82 11.166C294.904 11.166 295.023 11.391 295.083 11.666C295.143 11.941 295.258 12.166 295.339 12.166C295.419 12.166 295.534 12.429 295.594 12.75C295.654 13.071 295.77 13.333 295.852 13.333C295.933 13.333 296 13.446 296 13.584C296 13.721 296.15 14.114 296.333 14.456C296.516 14.798 296.666 15.21 296.666 15.372C296.666 15.534 296.735 15.666 296.82 15.666C296.904 15.666 297.023 15.891 297.083 16.166C297.143 16.441 297.258 16.666 297.339 16.666C297.419 16.666 297.534 16.929 297.594 17.25C297.654 17.57 297.764 17.833 297.838 17.833C297.912 17.833 298.023 18.058 298.083 18.333C298.143 18.608 298.261 18.833 298.344 18.833C298.428 18.833 298.544 19.133 298.602 19.5C298.661 19.866 298.768 20.166 298.841 20.166C298.914 20.166 299.023 20.391 299.083 20.666C299.143 20.941 299.258 21.166 299.339 21.166C299.419 21.166 299.534 21.429 299.594 21.75C299.654 22.07 299.764 22.333 299.838 22.333C299.912 22.333 300.023 22.558 300.083 22.833C300.143 23.108 300.261 23.333 300.344 23.333C300.428 23.333 300.544 23.633 300.602 24C300.661 24.366 300.766 24.666 300.836 24.666C300.906 24.666 301.015 24.872 301.078 25.123C301.141 25.374 301.269 25.627 301.362 25.684C301.605 25.834 301.609 27.047 301.367 27.127C301.257 27.164 301.164 27.319 301.161 27.472C301.158 27.625 301.01 28.05 300.833 28.416C300.656 28.783 300.508 29.214 300.505 29.375C300.502 29.535 300.431 29.666 300.346 29.666C300.262 29.666 300.143 29.891 300.083 30.166C300.023 30.441 299.912 30.666 299.838 30.666C299.764 30.666 299.654 30.929 299.594 31.25C299.534 31.57 299.413 31.833 299.325 31.833C299.238 31.833 299.166 31.927 299.165 32.041C299.165 32.156 299.064 32.442 298.941 32.677C298.818 32.913 298.663 33.324 298.596 33.592C298.528 33.86 298.398 34.126 298.307 34.182C298.216 34.239 298.099 34.596 298.048 34.976L297.956 35.666H299.561C300.877 35.666 301.166 35.621 301.166 35.416C301.166 35.279 301.24 35.166 301.331 35.166C301.422 35.166 301.544 34.866 301.602 34.5C301.661 34.133 301.768 33.833 301.841 33.833C301.914 33.833 302.023 33.608 302.083 33.333C302.143 33.058 302.258 32.833 302.339 32.833C302.419 32.833 302.534 32.57 302.594 32.25C302.654 31.929 302.764 31.666 302.838 31.666C302.912 31.666 303.023 31.441 303.083 31.166C303.143 30.891 303.252 30.666 303.325 30.666C303.398 30.666 303.505 30.366 303.564 30C303.622 29.633 303.738 29.333 303.822 29.333C303.905 29.333 304.023 29.108 304.083 28.833C304.143 28.558 304.254 28.333 304.328 28.333C304.402 28.333 304.512 28.07 304.572 27.75C304.632 27.429 304.752 27.166 304.839 27.166C304.925 27.166 305.044 26.866 305.102 26.5C305.161 26.133 305.268 25.833 305.341 25.833C305.414 25.833 305.523 25.608 305.583 25.333C305.643 25.058 305.758 24.833 305.839 24.833C305.919 24.833 306.034 24.57 306.094 24.25C306.154 23.929 306.264 23.666 306.338 23.666C306.412 23.666 306.523 23.441 306.583 23.166C306.643 22.891 306.752 22.666 306.825 22.666C306.898 22.666 307.005 22.366 307.064 22C307.122 21.633 307.238 21.333 307.322 21.333C307.405 21.333 307.523 21.108 307.583 20.833C307.643 20.558 307.754 20.333 307.828 20.333C307.902 20.333 308.012 20.07 308.072 19.75C308.132 19.429 308.252 19.166 308.339 19.166C308.425 19.166 308.544 18.866 308.602 18.5C308.661 18.133 308.768 17.833 308.841 17.833C308.914 17.833 309.023 17.608 309.083 17.333C309.143 17.058 309.258 16.833 309.339 16.833C309.419 16.833 309.534 16.571 309.594 16.25C309.654 15.929 309.764 15.666 309.838 15.666C309.912 15.666 310.023 15.441 310.083 15.166C310.143 14.891 310.262 14.666 310.346 14.666C310.431 14.666 310.5 14.534 310.5 14.372C310.5 14.21 310.65 13.798 310.833 13.456C311.016 13.114 311.166 12.721 311.166 12.584C311.166 12.446 311.233 12.333 311.314 12.333C311.396 12.333 311.512 12.071 311.572 11.75C311.632 11.429 311.747 11.166 311.827 11.166C311.908 11.166 312.023 10.941 312.083 10.666C312.143 10.391 312.262 10.166 312.346 10.166C312.431 10.166 312.502 10.035 312.505 9.875C312.508 9.714 312.656 9.283 312.833 8.916C313.414 7.714 313.369 7.666 311.654 7.666C310.026 7.666 309.771 7.776 309.573 8.563C309.513 8.803 309.4 9 309.322 9C309.245 9 309.132 9.262 309.072 9.583C309.012 9.904 308.902 10.166 308.828 10.166C308.754 10.166 308.643 10.391 308.583 10.666C308.523 10.941 308.414 11.166 308.341 11.166C308.268 11.166 308.161 11.466 308.102 11.833C308.044 12.2 307.925 12.5 307.839 12.5C307.752 12.5 307.632 12.762 307.572 13.083C307.512 13.404 307.402 13.666 307.328 13.666C307.254 13.666 307.143 13.891 307.083 14.166C307.023 14.441 306.914 14.666 306.841 14.666C306.768 14.666 306.661 14.966 306.602 15.333C306.544 15.7 306.428 16 306.344 16C306.261 16 306.143 16.225 306.083 16.5C306.023 16.775 305.912 17 305.838 17C305.764 17 305.654 17.262 305.594 17.583C305.534 17.904 305.419 18.166 305.339 18.166C305.258 18.166 305.142 18.396 305.081 18.678C305.019 18.959 304.863 19.39 304.735 19.636C304.607 19.882 304.501 20.177 304.501 20.291C304.5 20.406 304.433 20.5 304.352 20.5C304.27 20.5 304.154 20.762 304.094 21.083C304.034 21.404 303.921 21.666 303.844 21.666C303.766 21.666 303.655 21.857 303.596 22.09C303.458 22.64 303.208 22.475 303.071 21.744C303.011 21.426 302.902 21.166 302.828 21.166C302.754 21.166 302.643 20.941 302.583 20.666C302.523 20.391 302.408 20.166 302.327 20.166C302.247 20.166 302.132 19.904 302.072 19.583C302.012 19.262 301.902 19 301.828 19C301.754 19 301.643 18.775 301.583 18.5C301.523 18.225 301.405 18 301.322 18C301.238 18 301.122 17.7 301.064 17.333C301.005 16.966 300.898 16.666 300.825 16.666C300.752 16.666 300.643 16.441 300.583 16.166C300.523 15.891 300.408 15.666 300.327 15.666C300.247 15.666 300.132 15.404 300.072 15.083C300.012 14.762 299.902 14.5 299.828 14.5C299.754 14.5 299.643 14.275 299.583 14C299.523 13.725 299.41 13.5 299.333 13.5C299.256 13.5 299.143 13.275 299.083 13C299.023 12.725 298.914 12.5 298.841 12.5C298.768 12.5 298.661 12.2 298.602 11.833C298.544 11.466 298.428 11.166 298.344 11.166C298.261 11.166 298.143 10.941 298.083 10.666C298.023 10.391 297.912 10.166 297.838 10.166C297.764 10.166 297.654 9.904 297.594 9.583C297.534 9.262 297.421 9 297.344 9C297.266 9 297.153 8.803 297.093 8.563C296.895 7.775 296.641 7.666 294.998 7.666H293.473L293.584 8.171ZM130.852 8.666C130.919 8.666 131.023 8.891 131.083 9.166C131.143 9.441 131.254 9.666 131.328 9.666C131.402 9.666 131.512 9.929 131.572 10.25C131.632 10.571 131.753 10.833 131.841 10.833C131.928 10.833 132 10.942 132 11.076C132 11.21 132.333 11.966 132.74 12.757C133.147 13.548 133.528 14.414 133.586 14.681C133.645 14.948 133.756 15.166 133.833 15.166C133.91 15.166 134.023 15.391 134.083 15.666C134.143 15.941 134.262 16.166 134.346 16.166C134.431 16.166 134.5 16.279 134.5 16.416C134.5 16.632 133.926 16.666 130.333 16.666C127.666 16.666 126.166 16.606 126.166 16.5C126.166 16.408 126.233 16.333 126.314 16.333C126.396 16.333 126.512 16.071 126.572 15.75C126.632 15.429 126.747 15.166 126.827 15.166C126.908 15.166 127.023 14.941 127.083 14.666C127.143 14.391 127.256 14.166 127.333 14.166C127.41 14.166 127.523 13.941 127.583 13.666C127.643 13.391 127.756 13.166 127.833 13.166C127.91 13.166 128.023 12.941 128.083 12.666C128.143 12.391 128.256 12.166 128.333 12.166C128.41 12.166 128.523 11.941 128.583 11.666C128.643 11.391 128.754 11.166 128.828 11.166C128.902 11.166 129.012 10.904 129.072 10.583C129.132 10.262 129.253 10 129.341 10C129.428 10 129.5 9.92 129.5 9.823C129.5 9.725 129.703 9.219 129.951 8.698C130.4 7.755 130.404 7.752 130.567 8.208C130.657 8.46 130.785 8.666 130.852 8.666ZM215.505 10.35C215.553 10.424 215.909 10.535 216.296 10.596C216.683 10.658 217 10.774 217 10.854C217 10.934 217.078 11 217.173 11C217.573 11 220 13.131 220 13.481C220 13.561 220.107 13.715 220.239 13.824C220.371 13.933 220.53 14.261 220.593 14.553C220.656 14.844 220.778 15.128 220.863 15.182C220.949 15.236 221.062 15.705 221.116 16.224C221.169 16.742 221.277 17.166 221.356 17.166C221.435 17.166 221.5 17.466 221.5 17.833C221.5 18.2 221.435 18.5 221.356 18.5C221.277 18.5 221.17 18.967 221.119 19.537C221.067 20.108 220.944 20.602 220.845 20.634C220.747 20.667 220.666 20.833 220.666 21.002C220.666 21.171 220.564 21.412 220.438 21.537C220.313 21.663 220.157 21.933 220.092 22.137C219.895 22.758 217.648 24.833 217.173 24.833C217.078 24.833 217 24.899 217 24.981C217 25.062 216.662 25.179 216.25 25.241C215.837 25.303 215.5 25.424 215.5 25.51C215.5 25.709 212.051 25.718 211.928 25.519C211.878 25.437 211.555 25.318 211.21 25.253C210.866 25.189 210.546 25.086 210.5 25.026C210.454 24.966 210.143 24.777 209.808 24.607C209.099 24.247 207.5 22.709 207.5 22.387C207.5 22.266 207.438 22.166 207.363 22.166C207.188 22.166 206.5 20.799 206.5 20.454C206.5 20.311 206.406 20.163 206.291 20.125C206.013 20.032 205.993 15.878 206.27 15.702C206.373 15.637 206.511 15.339 206.575 15.041C206.64 14.743 206.754 14.5 206.828 14.5C206.903 14.5 207.011 14.312 207.068 14.083C207.126 13.854 207.246 13.666 207.336 13.666C207.426 13.666 207.5 13.569 207.5 13.449C207.5 12.773 209.957 10.934 211.5 10.456C212.915 10.017 215.245 9.956 215.505 10.35ZM35.74 10.317C35.791 10.4 36.208 10.52 36.667 10.583C37.125 10.646 37.5 10.76 37.5 10.835C37.5 10.911 37.725 11.023 38 11.083C38.275 11.143 38.5 11.264 38.5 11.351C38.5 11.439 38.631 11.557 38.791 11.614C39.044 11.704 40.179 12.81 40.782 13.553C41.137 13.992 41.666 15.071 41.666 15.358C41.666 15.512 41.76 15.67 41.875 15.708C42.154 15.801 42.173 20.288 41.896 20.464C41.793 20.529 41.655 20.827 41.591 21.125C41.526 21.423 41.404 21.666 41.32 21.666C41.235 21.666 41.166 21.764 41.166 21.882C41.166 22.458 38.757 24.833 38.173 24.833C38.078 24.833 38 24.905 38 24.992C38 25.08 37.736 25.201 37.414 25.261C37.093 25.321 36.788 25.437 36.738 25.519C36.688 25.6 36.314 25.666 35.906 25.666C35.499 25.666 35.166 25.741 35.166 25.833C35.166 25.925 34.941 26 34.666 26C34.391 26 34.166 25.925 34.166 25.833C34.166 25.741 33.829 25.666 33.416 25.666C33.004 25.666 32.666 25.591 32.666 25.5C32.666 25.408 32.543 25.333 32.393 25.333C31.473 25.333 28.503 23.076 28.5 22.375C28.5 22.26 28.433 22.166 28.351 22.166C28.269 22.166 28.151 21.961 28.088 21.71C28.025 21.459 27.898 21.207 27.807 21.15C27.716 21.094 27.599 20.737 27.548 20.357C27.497 19.977 27.391 19.666 27.311 19.666C27.108 19.666 27.129 16.542 27.333 16.416C27.425 16.36 27.5 16.163 27.5 15.98C27.5 15.665 28.105 14.293 28.548 13.603C28.818 13.183 30.243 11.742 30.525 11.605C30.649 11.545 31.087 11.305 31.5 11.072C31.912 10.84 32.568 10.605 32.958 10.552C33.348 10.498 33.666 10.39 33.666 10.31C33.666 10.118 35.621 10.125 35.74 10.317ZM76 10.323C76 10.409 76.337 10.53 76.75 10.592C77.162 10.654 77.5 10.765 77.5 10.839C77.5 10.913 77.725 11.023 78 11.083C78.275 11.143 78.5 11.262 78.5 11.346C78.5 11.431 78.597 11.5 78.716 11.5C79 11.5 80.666 13.162 80.666 13.446C80.666 13.567 80.733 13.666 80.815 13.666C80.897 13.666 81.015 13.872 81.078 14.123C81.141 14.374 81.256 14.619 81.333 14.666C81.41 14.714 81.525 14.959 81.588 15.21L81.702 15.666H74.684C68.88 15.666 67.666 15.627 67.666 15.44C67.666 15.15 68.662 13.268 68.854 13.194C68.934 13.164 69 13.059 69 12.961C69 12.731 70.094 11.666 70.33 11.666C70.429 11.666 70.551 11.561 70.6 11.431C70.65 11.302 70.891 11.146 71.135 11.085C71.38 11.023 71.626 10.898 71.682 10.807C71.739 10.716 72.096 10.599 72.476 10.548C72.856 10.497 73.166 10.391 73.166 10.311C73.166 10.231 73.804 10.166 74.583 10.166C75.362 10.166 76 10.237 76 10.323ZM102.5 10.31C102.5 10.39 102.826 10.499 103.225 10.554C103.858 10.641 104.92 11.071 105.166 11.341C105.212 11.391 105.511 11.615 105.831 11.839C106.533 12.33 107 12.783 107 12.974C107 13.051 107.15 13.25 107.333 13.416C107.516 13.582 107.666 13.813 107.666 13.928C107.666 14.044 107.743 14.164 107.837 14.195C107.931 14.227 108.055 14.552 108.113 14.918C108.171 15.284 108.287 15.628 108.371 15.683C108.607 15.839 108.623 19.484 108.388 19.631C108.281 19.698 108.141 19.959 108.078 20.21C108.015 20.461 107.903 20.666 107.828 20.666C107.754 20.666 107.643 20.891 107.583 21.166C107.523 21.441 107.404 21.666 107.32 21.666C107.235 21.666 107.166 21.767 107.166 21.891C107.166 22.014 107.016 22.25 106.833 22.416C106.65 22.582 106.5 22.779 106.5 22.853C106.5 23.435 103.582 25.333 102.686 25.333C102.503 25.333 102.306 25.408 102.25 25.5C102.124 25.704 99.721 25.724 99.597 25.522C99.547 25.442 99.214 25.33 98.855 25.272C98.496 25.215 98.159 25.055 98.106 24.917C98.053 24.779 97.895 24.666 97.755 24.666C97.615 24.666 97.5 24.608 97.5 24.536C97.5 24.464 97.292 24.282 97.039 24.133C96.217 23.647 95 22.278 95 21.84C95 21.744 94.931 21.666 94.846 21.666C94.762 21.666 94.64 21.423 94.575 21.125C94.511 20.827 94.373 20.529 94.27 20.464C93.759 20.14 94.043 15.989 94.659 14.789C94.975 14.172 95.294 13.666 95.367 13.666C95.44 13.666 95.5 13.581 95.5 13.477C95.5 13.237 97.087 11.666 97.329 11.666C97.429 11.666 97.552 11.558 97.602 11.427C97.653 11.295 97.913 11.139 98.18 11.08C98.448 11.021 98.666 10.911 98.666 10.835C98.666 10.76 99.041 10.646 99.499 10.583C99.958 10.52 100.375 10.4 100.426 10.317C100.545 10.125 102.5 10.118 102.5 10.31ZM186.74 10.317C186.791 10.4 187.208 10.52 187.667 10.583C188.125 10.646 188.5 10.757 188.5 10.831C188.5 10.904 188.689 11.011 188.921 11.069C189.152 11.127 189.479 11.304 189.647 11.462C189.815 11.62 190.226 11.969 190.56 12.237C190.893 12.505 191.166 12.796 191.166 12.885C191.166 12.973 191.345 13.21 191.564 13.413C191.782 13.615 192.017 13.961 192.086 14.182C192.155 14.403 192.274 14.624 192.351 14.673C192.428 14.723 192.541 15.304 192.603 15.965C192.664 16.626 192.778 17.166 192.857 17.166C192.935 17.166 193 17.616 193 18.166C193 18.716 192.931 19.166 192.846 19.166C192.762 19.166 192.643 19.391 192.583 19.666C192.523 19.941 192.41 20.166 192.333 20.166C192.256 20.166 192.143 20.391 192.083 20.666C192.023 20.941 191.912 21.166 191.838 21.166C191.763 21.166 191.654 21.36 191.594 21.597C191.535 21.834 191.302 22.199 191.076 22.408C190.851 22.617 190.666 22.847 190.666 22.919C190.666 23.107 189.548 24.166 189.35 24.166C189.258 24.166 189.123 24.26 189.05 24.375C188.865 24.663 187.456 25.333 187.033 25.333C186.842 25.333 186.64 25.408 186.583 25.5C186.457 25.704 184.055 25.724 183.93 25.522C183.881 25.442 183.539 25.329 183.17 25.27C182.801 25.211 182.5 25.093 182.5 25.009C182.5 24.925 182.351 24.808 182.169 24.75C181.771 24.624 181.192 24.157 180.269 23.22C179.315 22.25 179.195 22.088 179.072 21.597C179.012 21.36 178.901 21.166 178.825 21.166C178.749 21.166 178.636 20.829 178.574 20.416C178.512 20.004 178.395 19.666 178.314 19.666C178.109 19.666 178.127 16.544 178.333 16.416C178.425 16.36 178.5 16.163 178.5 15.98C178.5 15.665 179.105 14.293 179.548 13.603C179.818 13.183 181.243 11.742 181.525 11.605C181.649 11.545 182.087 11.305 182.5 11.072C182.912 10.84 183.568 10.605 183.958 10.552C184.348 10.498 184.666 10.39 184.666 10.31C184.666 10.118 186.621 10.125 186.74 10.317ZM242.238 10.314C242.288 10.395 242.586 10.51 242.9 10.569C244.319 10.835 246.847 12.75 247.098 13.748C247.155 13.978 247.263 14.166 247.338 14.166C247.412 14.166 247.523 14.391 247.583 14.666C247.643 14.941 247.762 15.166 247.846 15.166C247.931 15.166 248 15.279 248 15.416C248 15.635 247.111 15.666 241 15.666C233.094 15.666 233.684 15.791 234.423 14.281C235.326 12.437 235.937 11.826 237.781 10.923C238.257 10.69 238.796 10.5 238.98 10.5C239.163 10.5 239.36 10.425 239.416 10.333C239.544 10.127 242.112 10.11 242.238 10.314Z" fill="#323232"/>
<path fill-rule="evenodd" clip-rule="evenodd" d="M44.542 20.1151C44.702 20.1571 44.965 20.1571 45.125 20.1151C45.285 20.0731 45.154 20.0391 44.833 20.0391C44.512 20.0391 44.381 20.0731 44.542 20.1151Z" fill="#323232"/>
<path fill-rule="evenodd" clip-rule="evenodd" d="M44.542 20.1151C44.702 20.1571 44.965 20.1571 45.125 20.1151C45.285 20.0731 45.154 20.0391 44.833 20.0391C44.512 20.0391 44.381 20.0731 44.542 20.1151Z" fill="#323232"/>
<path fill-rule="evenodd" clip-rule="evenodd" d="M44.542 20.1151C44.702 20.1571 44.965 20.1571 45.125 20.1151C45.285 20.0731 45.154 20.0391 44.833 20.0391C44.512 20.0391 44.381 20.0731 44.542 20.1151Z" fill="#323232"/>
<path fill-rule="evenodd" clip-rule="evenodd" d="M44.542 20.1151C44.702 20.1571 44.965 20.1571 45.125 20.1151C45.285 20.0731 45.154 20.0391 44.833 20.0391C44.512 20.0391 44.381 20.0731 44.542 20.1151Z" fill="#323232"/>
</svg>
