<svg width="1920" height="833" viewBox="0 0 1920 833" fill="none" xmlns="http://www.w3.org/2000/svg">
<path d="M0 831.993V104.142C3.33333 101.479 29.4 96.1549 107 96.1549C250.2 89.7655 452 128.634 535 148.867C613.167 165.905 772.1 199.982 782.5 199.982C789.5 206.371 932.5 225.006 1018.5 219.682C1190 201.579 1126 215.422 1289.5 165.905C1395 130.231 1462.5 89.2331 1615.5 45.0402C1733.1 4.57447 1867.5 -1.63738 1920 0.314913V771.294C1920 771.294 1908.5 779.312 1828 777.684C1731.5 775.732 1522.4 767.674 1458 751.062C1452 755.321 1190.5 711.128 1121.5 711.128C1053.9 703.461 972.333 703.674 940 704.739C901 705.094 799.4 709.85 705 726.037C610.6 742.223 546.667 760.113 526.5 767.035C465.333 780.701 333.4 809.418 295 814.955C152.2 834.123 38.8333 834.3 0 831.993Z" fill="url(#paint0_linear_41_3)"/>
<defs>
<linearGradient id="paint0_linear_41_3" x1="1001" y1="50.3649" x2="954.529" y2="772.007" gradientUnits="userSpaceOnUse">
<stop offset="0.293397" stop-color="#0F2B46"/>
<stop offset="0.984375" stop-color="#F21863"/>
</linearGradient>
</defs>
</svg>
